<svg id="Слой_1" data-name="Слой 1" xmlns="http://www.w3.org/2000/svg" xmlns:xlink="http://www.w3.org/1999/xlink" viewBox="0 0 84.33 84.33"><defs><style>.cls-1{fill:#fff;}.cls-2{fill:none;}.cls-3{fill:#edc741;}.cls-4{fill:#7ac333;}.cls-5{fill:#9dd436;}.cls-6{fill:url(#linear-gradient);}</style><linearGradient id="linear-gradient" x1="682.69" y1="1147.9" x2="682.69" y2="1113.18" gradientTransform="translate(0 -758.37)" gradientUnits="userSpaceOnUse"><stop offset="0" stop-color="#4772e9"/><stop offset="1" stop-color="#72c5f8"/></linearGradient></defs><title>Безымянный-1</title><path class="cls-1" d="M724.84,415.7a10.56,10.56,0,0,1-10.54,10.55H651.05A10.57,10.57,0,0,1,640.5,415.7V352.45a10.57,10.57,0,0,1,10.55-10.54H714.3a10.56,10.56,0,0,1,10.54,10.54Z" transform="translate(-640.5 -341.91)"/><path class="cls-2" d="M653.34,354c-5.11-1.07-7.73-3-9.42-9.23a10.49,10.49,0,0,0-3.42,7.73V415.7a10.57,10.57,0,0,0,10.55,10.55H714.3a10.56,10.56,0,0,0,10.54-10.55V366.14C713.83,364.31,656.67,354.66,653.34,354Z" transform="translate(-640.5 -341.91)"/><path class="cls-3" d="M653.34,354c3.33.71,60.44,10.36,71.5,12.23V352.45a10.56,10.56,0,0,0-10.54-10.54H651.05a10.47,10.47,0,0,0-7.13,2.81C645.61,350.91,648.23,352.88,653.34,354Z" transform="translate(-640.5 -341.91)"/><path class="cls-2" d="M724.79,389.89c0,16.16-15.41,19.12-15.41,19.12l-50,10.3-12.88-62.78,78.29,13.21V352.45a10.56,10.56,0,0,0-10.54-10.54H651.05a10.56,10.56,0,0,0-9.84,6.75c4.31,20.57,13.35,63.86,13.54,64.84.28,1.55-.42,6.8-5.62,7.83-1.74.33-3.85.79-6,1.26a10.56,10.56,0,0,0,8,3.61H714.3a10.55,10.55,0,0,0,10.54-10.54V371.38C724.84,373.73,724.79,379.07,724.79,389.89Z" transform="translate(-640.5 -341.91)"/><path class="cls-4" d="M659.39,419.27,709.33,409s15.41-2.91,15.41-19.12c0-10.82,0-16.16,0-18.5V369.7l-78.24-13.17Z" transform="translate(-640.5 -341.91)"/><path class="cls-4" d="M654.75,413.5c-.19-1-9.23-44.27-13.54-64.84a10.25,10.25,0,0,0-.71,3.79V415.7a10.66,10.66,0,0,0,2.58,6.94c2.2-.47,4.31-.94,6-1.27C654.33,420.3,655,415.05,654.75,413.5Z" transform="translate(-640.5 -341.91)"/><path class="cls-2" d="M646.55,425.22l10.21-2,.61,3.05h3.47l-.75-3.7,51.68-10.5s8.76-1.69,13.07-9.42V352.45a10.56,10.56,0,0,0-10.54-10.54H651.05a10.57,10.57,0,0,0-10.55,10.54V415.7A10.54,10.54,0,0,0,646.55,425.22Z" transform="translate(-640.5 -341.91)"/><path class="cls-5" d="M646.55,425.22a10.46,10.46,0,0,0,4.5,1h6.32l-.61-3Z" transform="translate(-640.5 -341.91)"/><path class="cls-5" d="M711.77,412.05l-51.68,10.5.75,3.7H714.3a10.56,10.56,0,0,0,10.54-10.55v-13C720.53,410.41,711.77,412.05,711.77,412.05Z" transform="translate(-640.5 -341.91)"/><path class="cls-2" d="M724.84,415.7a10.56,10.56,0,0,1-10.54,10.55H651.05A10.57,10.57,0,0,1,640.5,415.7V352.45a10.57,10.57,0,0,1,10.55-10.54H714.3a10.56,10.56,0,0,1,10.54,10.54Z" transform="translate(-640.5 -341.91)"/><path class="cls-1" d="M677.56,417.11v-3.65c0-16.78-1.17-25.26-9.18-26h-6l-.84-2.71c-1.74-6.33-1.74-9-1.69-12.14v-1a22.75,22.75,0,0,1,45.49-.23c.19,1.5.47,6.09-1.73,13.54l-.89,2.62h-5.9c-7.87.94-9.14,9.56-9.14,26.47v1.55Z" transform="translate(-640.5 -341.91)"/><path class="cls-6" d="M701.93,371.52a19.24,19.24,0,0,0-38.47,0h0a48.53,48.53,0,0,0,1.74,12.56h3c13.4,1.08,12.94,15.79,12.94,30.78,0-.05,2-.19,3-.33,0-14.94.05-29.09,13-30.4h3a51.53,51.53,0,0,0,1.74-12.61Z" transform="translate(-640.5 -341.91)"/></svg>