<?xml version="1.0" encoding="UTF-8"?>
<!DOCTYPE svg PUBLIC "-//W3C//DTD SVG 1.1//EN" "http://www.w3.org/Graphics/SVG/1.1/DTD/svg11.dtd">
<!-- Creator: CorelDRAW 2017 -->
<svg xmlns="http://www.w3.org/2000/svg" xml:space="preserve" width="250mm" height="250mm" version="1.1" style="shape-rendering:geometricPrecision; text-rendering:geometricPrecision; image-rendering:optimizeQuality; fill-rule:evenodd; clip-rule:evenodd"
viewBox="0 0 25000 25000"
 xmlns:xlink="http://www.w3.org/1999/xlink">
 <defs>
  <style type="text/css">
   <![CDATA[
    .fil2 {fill:#0070B8}
    .fil1 {fill:black;fill-rule:nonzero}
    .fil0 {fill:#0070B8;fill-rule:nonzero}
   ]]>
  </style>
 </defs>
 <g id="Слой_x0020_1">
  <metadata id="CorelCorpID_0Corel-Layer"/>
  <path class="fil0" d="M3709.88 12307.24c8.29,-35.71 18.25,-62.81 30.05,-81.3 11.8,-18.49 26.54,-30.92 44.39,-37.13 28.37,-9.89 70.13,-5.98 125.36,11.79 55.08,17.61 123.06,53.48 203.71,107.51 30.92,22.08 64.08,36.1 99.7,42.16 35.55,6.14 69.34,3.59 101.3,-7.57 24.86,-8.69 48.53,-21.04 71.01,-37.14 22.47,-16.1 44.39,-34.03 65.67,-53.71 50.84,-50.61 96.91,-112.93 138.19,-186.89 41.36,-73.96 70.21,-146.65 86.63,-218.13 10.52,-40.65 16.98,-78.82 19.29,-114.53 2.23,-35.78 -1.36,-68.38 -10.92,-97.87 -1.19,-3.66 -2.39,-7.41 -3.59,-11.08 -1.19,-3.74 -2.39,-7.41 -3.58,-11.07 -2.31,-7.34 -5.34,-13.55 -8.93,-18.41 -3.5,-4.94 -5.9,-9.25 -7.09,-12.91 -13.07,-15.94 -30.37,-32.6 -51.72,-49.73 -21.28,-17.22 -43.92,-31.96 -67.67,-44.16 -42.64,-22.07 -88.38,-41.04 -137,-56.9 -48.61,-15.94 -100.81,-30.6 -156.52,-43.91 -101.93,-21.92 -200.36,-48.22 -295.28,-78.66 -94.92,-30.61 -183.86,-64.24 -266.9,-100.9 -72.37,-28.13 -139.71,-59.14 -201.96,-92.77 -62.32,-33.79 -120.18,-65.91 -173.58,-96.59 -74.83,-47.74 -138.59,-107.67 -191.51,-179.56 -52.92,-71.81 -93.09,-150.23 -120.58,-235.11 -8.37,-25.82 -15.86,-51.96 -22.4,-78.42 -6.61,-26.46 -10.52,-53.87 -11.71,-82.16 -10.84,-70.14 -13.95,-140.99 -9.41,-212.32 4.63,-71.49 14.43,-138.59 29.73,-201.39 48.22,-168.8 117.79,-314.33 208.73,-436.34 91.01,-122.18 193.26,-221.48 306.91,-298.15 12.91,-8.69 26.86,-17.61 41.68,-26.86 14.83,-9.24 30.53,-18.89 47.02,-28.77 27.26,-13.63 54.84,-26.3 82.57,-38.01 27.81,-11.8 55.95,-22.64 84.4,-32.52 117.23,-40.97 233.59,-60.01 349.15,-57.22 115.64,2.79 219.09,29.25 310.42,79.53 53.48,30.61 101.22,71.41 143.46,122.42 42.16,51 73.96,109.74 95.47,176.13 26.3,81.21 36.59,174.14 30.85,278.78 -5.66,104.64 -32.6,222.91 -80.9,354.81 -7.17,2.47 -15.14,5.26 -23.98,8.37 -8.93,3.11 -16.9,5.9 -23.99,8.37 -9.49,7.33 -18.65,12.67 -27.58,15.78 -8.84,3.11 -16.89,5.9 -23.91,8.37 -131.5,45.82 -234.23,61.2 -308.35,45.98 -74.11,-15.14 -119.54,-48.69 -136.2,-100.34 -4.78,-14.74 -6.93,-30.36 -6.37,-47.1 0.55,-16.58 1.99,-33.55 4.3,-50.77 1.2,-8.6 3.27,-17.45 6.14,-26.77 3.03,-9.25 5.1,-18.1 6.21,-26.78 3.43,-50.45 5.66,-95.48 6.78,-134.85 1.03,-39.37 -1.92,-70.13 -9.09,-92.29 -8.37,-25.82 -20.88,-43.04 -37.46,-51.64 -16.65,-8.53 -35.62,-9.09 -56.9,-1.68 -24.86,8.69 -57.7,29.41 -98.5,62.09 -40.81,32.75 -87.19,78.66 -139.24,137.95 -51.96,59.3 -93.64,129.19 -124.8,209.93 -31.24,80.73 -44.95,163.53 -41.2,248.49 3.58,23.35 6.05,46.15 7.25,68.38 1.19,22.08 4.78,42.4 10.76,60.89 5.97,18.41 13.15,34.35 21.52,47.9 8.36,13.55 19.04,28.29 32.11,44.23 28.53,27.1 67.59,53.4 117.48,79.14 49.81,25.74 116.27,50.85 199.32,75.23 17.69,6.06 35.3,11.32 52.44,15.54 17.21,4.23 32.36,8.21 45.35,11.96 135.24,38.97 268.58,78.66 400.24,118.91 131.74,40.32 257.42,86.87 377.2,139.47 40.33,14.66 75.32,31.16 105.04,49.57 29.65,18.41 55.79,38.01 78.34,58.89 26.15,19.61 49.02,41.45 68.62,65.43 19.61,23.91 38.34,51.25 56.19,82.01 11.88,12.28 23.43,26.7 34.75,43.28 11.32,16.58 24.07,34.75 38.33,54.43 13.15,15.94 24.39,32.6 33.95,49.73 9.49,17.22 18.97,34.43 28.54,51.73 7.17,22.07 14.58,42.08 22.39,59.93 7.65,17.77 14.58,35.94 20.56,54.35 47.74,147.6 51.96,307.39 12.67,479.3 -39.37,171.75 -120.34,336.64 -243.31,494.52 -36.66,45.67 -80.89,88.86 -133.02,129.67 -52.12,40.72 -107.11,75.39 -165.05,103.76 -27.25,13.63 -55.63,26.7 -85.27,39.05 -29.57,12.44 -58.66,23.59 -86.95,33.48 -64,22.31 -126.72,39.05 -188.33,50.37 -61.6,11.23 -116.83,14.98 -165.37,11.47 -33.23,-4.86 -65.75,-10.92 -97.87,-18.25 -31.96,-7.33 -62.8,-13.95 -92.45,-20.08 -91.33,-25.66 -165.37,-59.3 -222.43,-101.06 -56.98,-41.6 -96.83,-97.55 -119.47,-167.68 -11.95,-36.98 -19.44,-81.53 -22.55,-133.81 -3.03,-52.36 -3.51,-105.52 -1.28,-159.79zm2839.77 -3467.94l-138.51 48.37c-46.23,16.18 -97.47,34.99 -153.66,56.67 -56.27,21.76 -112.77,48.61 -169.59,80.81 -46.23,16.1 -77.31,33.15 -93.25,50.93 -15.94,17.93 -23.83,45.35 -23.75,82.32 0,0 -0.64,1.2 -1.83,3.67 -1.12,2.47 -1.12,5.5 0.08,9.25 0.08,49.25 1.67,96.99 4.78,143.05 3.03,46.23 8.21,92.69 15.38,139.47 8.53,75 19.92,150.15 34.35,225.15 14.42,75.07 32.91,153.89 55.63,236.22 7.17,22.15 17.85,36.9 32.12,44.31 14.26,7.33 33.79,6.69 58.65,-1.99 48.54,-21.04 91.18,-39.05 127.84,-53.88 36.74,-14.9 71.09,-27.89 103.05,-39.05 131.5,-45.91 229.44,-60.65 294.16,-44.15 64.55,16.42 132.61,67.66 203.86,153.73 16.58,14.67 31.8,31.01 45.43,48.78 13.71,17.85 28.29,38.41 43.67,61.76l3.59 11.08c19.13,59.06 -26.94,118.27 -138.19,177.65 -111.26,59.37 -237.42,115.64 -378.33,168.95 -28.37,9.97 -55.86,19.53 -82.56,28.85 -26.62,9.33 -54.2,18.97 -82.57,28.85 -17.77,6.22 -30.2,13.63 -37.3,22.24 -7.09,8.61 -9.96,27.1 -8.76,55.47 3.58,11 6.29,22.39 8.13,34.11 1.75,11.71 3.34,25.5 4.54,41.6 9.56,54.04 26.3,127.36 50.29,219.65 23.91,92.21 56.74,202.98 98.5,332.17 4.78,14.67 10.12,31.32 16.1,49.73 5.98,18.49 14.35,38.18 25.11,59.06 2.39,7.41 5.34,16.58 8.92,27.66 3.59,11.07 6.62,20.32 9.01,27.73 3.5,11 6.85,21.2 9.8,30.44 3.03,9.17 6.3,19.29 9.88,30.45 12.99,28.29 31.72,46.38 56.11,54.27 24.31,7.97 56.03,5.1 95.08,-8.53 53.24,-18.64 123.69,-54.43 211.27,-107.67 87.51,-53.07 198.21,-123.61 331.94,-211.27 8.29,-11.16 17.14,-20.41 26.62,-27.82 9.41,-7.41 20.64,-15.46 33.71,-24.15 10.6,-3.66 21.04,-8.28 31.01,-13.94 10.12,-5.5 20.48,-10.12 31.16,-13.87 67.42,-23.59 130.86,-16.9 190.23,19.84 59.38,36.82 105.6,82.17 139,136.29 3.58,11.07 7.73,20.96 12.51,29.48 4.7,8.61 8.92,18.49 12.51,29.57 11.96,36.9 16.42,75.4 13.55,115.4 -2.79,40.01 -19.05,75.4 -48.62,106.24 -24.86,21.04 -56.42,48.46 -94.91,82.49 -38.42,33.95 -82.49,71.96 -132.14,113.88 -60.33,45.75 -128.08,93.01 -203.23,141.78 -75.07,48.86 -152.94,95.48 -233.43,140.03 -30.85,14.83 -61.85,28.77 -93.25,41.76 -31.4,13.07 -63.04,25.11 -95,36.27 -110.14,38.49 -218.85,56.9 -326.12,55.31 -107.27,-1.52 -201.87,-37.3 -283.72,-107.36 -86.71,-35.38 -178.76,-146 -276.39,-331.7 -97.63,-185.61 -186.41,-402.07 -266.43,-649.29 -20.24,-62.8 -39.68,-125.84 -58.17,-189.2 -18.49,-63.36 -36.19,-127.04 -52.84,-191.03 -46.71,-193.11 -82.97,-384.86 -108.95,-574.94 -25.9,-190.15 -36.74,-357.92 -32.36,-503.2l-5.34 -16.5c-1.19,-3.75 -2.07,-6.54 -2.71,-8.37 -0.55,-1.83 -0.87,-2.79 -0.87,-2.79 -7.18,-9.88 -13.63,-17.85 -19.53,-23.91 -5.98,-6.14 -13.07,-9.8 -21.44,-11.08 -17.77,-6.13 -37.61,-15.54 -59.61,-28.45 -22,-12.91 -45.99,-29.17 -72.13,-48.77 -26.06,-19.69 -54.27,-42.56 -84.55,-69.02 -30.29,-26.46 -59.7,-53.08 -88.23,-80.1 -29.65,-30.76 -55.55,-61.76 -77.54,-93.08 -22,-31.32 -37.78,-61.77 -47.27,-91.26 -1.19,-3.74 -2.7,-8.28 -4.54,-13.86 -1.75,-5.58 -1.99,-12.59 -0.95,-21.28 -2.4,-7.33 -3.51,-14.11 -3.51,-20.24 -0.08,-6.22 1.11,-11.72 3.43,-16.66 8.2,-72.69 87.9,-152.86 239.49,-240.69 151.5,-87.74 386.53,-189.36 705,-304.6 35.54,-12.43 66.06,-22.07 91.49,-28.93 25.5,-6.77 49.41,-12.11 71.96,-15.86 20.17,1.2 42.64,3.59 67.59,7.25 24.94,3.59 56.34,9.09 94.28,16.34 8.29,1.28 18.01,3.99 29.33,8.29 11.24,4.22 22.87,6.38 34.67,6.38 53.39,18.25 106.79,39.69 160.11,64.15 53.39,24.47 103.84,55.15 151.34,91.97 26.14,19.61 48.7,40.49 67.74,62.64 18.97,22.08 30.85,40.57 35.63,55.31 4.78,14.83 2.15,27.98 -7.89,39.69 -10.04,11.8 -25.74,21.36 -47.02,28.85l-42.64 14.83zm3807.05 1923.88c0,0 2.31,1.28 7.09,3.75 4.7,2.39 10.12,6.69 15.94,12.83 3.59,11.08 8.45,19.69 14.35,25.82 5.97,6.06 10.68,14.75 14.26,25.83 2.39,7.41 4.55,16.89 6.3,28.53 1.83,11.71 0.96,24.38 -2.55,37.93 -1.2,20.88 -8.85,43.12 -22.95,66.47 -14.19,23.51 -37.3,46.94 -69.18,70.45 -59.14,49.33 -110.3,89.74 -153.5,121.3 -43.19,31.48 -84.32,54.12 -123.37,67.74 -21.36,7.42 -42.64,11.8 -64,13.07 -21.27,1.28 -44.39,0.16 -69.33,-3.5 -39.13,-11 -80.97,-30.29 -125.45,-57.86 -44.55,-27.58 -98.82,-61.05 -162.9,-100.18 -61.76,-44.23 -124.96,-89.9 -189.68,-137.08 -64.63,-47.34 -127.91,-93.01 -189.59,-137.16 -163.86,-127.67 -314.97,-255.59 -453.4,-383.9 -138.36,-128.31 -247.94,-244.03 -328.75,-347.24 -7.09,-9.88 -14.27,-19.77 -21.44,-29.57 -7.09,-9.8 -14.27,-19.6 -21.36,-29.49 -43.91,-50.28 -80.49,-83.84 -109.58,-100.41 -29.09,-16.5 -48.94,-22.88 -59.54,-19.21 -14.26,4.94 -21.59,25.02 -22.07,60.09 -0.56,35.07 5.74,73 18.89,113.57l343.65 1025.86 46.54 143.93c19.13,59.06 27.9,104.33 26.22,135.65 -1.75,31.48 -20.4,53.39 -55.86,65.75 -24.87,8.68 -59.86,13.7 -104.89,15.06 -44.94,1.35 -100.17,5.1 -165.29,11.48 -24.86,-3.67 -49.49,-6.38 -73.8,-8.13 -24.22,-1.76 -47.1,-5.18 -68.46,-9.97 -110.22,-23.19 -187.68,-60.72 -232.23,-113.01 -44.55,-52.2 -82.97,-128.15 -115.17,-227.77 -2.39,-7.33 -4.78,-14.74 -7.17,-22.16 -2.39,-7.41 -3.66,-17.21 -3.66,-29.48 -2.4,-7.42 -4.79,-14.83 -7.18,-22.16 -2.39,-7.41 -4.78,-14.82 -7.17,-22.16 -80.02,-259.57 -149.91,-503.2 -209.68,-730.82 -59.78,-227.53 -115.48,-451.48 -166.97,-671.76 -17.93,-92.29 -36.82,-184.26 -56.58,-275.92 -19.77,-91.73 -38.66,-183.62 -56.67,-275.99 0,-12.27 -0.95,-24.3 -2.79,-35.94 -1.75,-11.72 -3.27,-25.58 -4.54,-41.52 -3.59,-11.16 -6.22,-22.48 -8.05,-34.19 -1.83,-11.64 -4.46,-23.11 -8.05,-34.19 -1.19,-3.67 -2.07,-6.46 -2.63,-8.21 -0.64,-1.91 -1.51,-4.7 -2.71,-8.37 -1.19,-3.66 -1.83,-5.58 -1.83,-5.58 0,0 -0.56,-1.83 -1.76,-5.5 -4.78,-2.47 -7.81,-5.5 -9,-9.24 -1.12,-3.59 -2.31,-7.33 -3.51,-11 -5.97,-6.14 -30.6,-24.23 -73.96,-54.35 -43.27,-30.05 -91.65,-66.55 -145.05,-109.51 -20.24,-13.47 -39.84,-28.21 -58.81,-44.15 -18.97,-15.94 -37.46,-33.15 -55.23,-51.56 -34.43,-33.16 -65.91,-66.31 -94.44,-99.47 -28.45,-33.15 -48.14,-66.46 -58.9,-99.62 -1.19,-3.66 -2.39,-7.41 -3.59,-11.07 -1.19,-3.67 -2.39,-7.34 -3.58,-11 -1.28,-16.02 0.24,-33 4.3,-50.85 4.15,-17.85 10.36,-32.28 18.57,-43.43 69.74,-77.71 158.76,-150.95 267.07,-219.49 108.23,-68.7 228.17,-125.92 359.51,-171.75 42.64,-14.9 85.99,-27.89 129.75,-39.13 43.83,-11.24 87.58,-22.39 131.42,-33.55 231.04,-43.67 467.82,-36.02 710.34,23.11 242.44,59.14 446.94,199.24 613.35,420.4 11.87,12.36 21.12,25.51 27.65,39.69 6.54,14.11 14.03,27.9 22.32,41.52 9.48,17.14 16.65,33.16 21.43,47.9 4.79,14.75 9.57,29.49 14.35,44.31 44.15,136.53 37.7,275.36 -19.53,416.42 -57.14,141.22 -127.59,271.53 -211.43,391.15 -18.97,27.1 -36.98,54.04 -54.04,80.5 -17.13,26.46 -35.78,51.48 -55.86,74.91 -18.89,27.18 -35.47,49.34 -49.58,66.63 -14.18,17.22 -25.5,31.48 -33.71,42.56 -5.9,6.22 -9.16,11.4 -9.72,15.78 -0.64,4.22 0.32,10.12 2.71,17.45 3.58,11.08 15.14,25.59 34.75,43.36 19.52,17.77 46.54,43.27 81.13,76.43 173.34,157.16 373.14,316.39 599.24,477.7 226.18,161.31 467.42,320.46 723.81,477.39 39.13,23.35 78.58,47.58 118.35,72.68 39.77,25.11 79.22,49.33 118.43,72.6zm-2559.79 -2211.43c9.56,17.14 19.37,41.44 29.49,72.84 10.12,31.4 20.56,63.68 31.32,96.92 1.19,3.66 2.71,8.28 4.46,13.86 1.83,5.5 3.35,10.12 4.54,13.79 1.2,3.67 2.39,7.41 3.59,11.08 1.12,3.66 1.75,5.58 1.75,5.58 13.15,40.56 24.23,77.78 33.08,111.57 9,33.87 13.55,56.91 13.55,69.26 4.78,14.74 8.36,28.85 10.76,42.4 2.39,13.55 5.41,25.9 9,36.98 4.78,27.09 9.88,51.96 15.22,74.67 5.42,22.8 11.72,45.19 18.89,67.35 17.93,55.39 38.42,97.47 61.61,126.4 23.19,28.93 49.01,38.41 77.46,28.45 17.7,-6.22 39.93,-23.19 66.55,-51.01 26.54,-27.73 52.84,-62.56 78.82,-104.48 112.21,-166.49 186.57,-309.54 222.99,-429.09 36.42,-119.46 43.36,-214.3 20.64,-284.36 -21.51,-66.47 -70.13,-110.06 -146.08,-130.78 -75.87,-20.8 -163.62,-13.79 -263,20.96l-21.44 7.41c0,0 -1.67,0.64 -5.26,1.91 -3.59,1.2 -5.34,1.84 -5.34,1.84 -3.51,1.19 -5.26,1.83 -5.26,1.83 0,0 0,0 0,0 -2.39,4.94 -5.34,8.05 -8.93,9.32 -3.5,1.28 -5.26,1.84 -5.26,1.84 -3.58,1.27 -8.04,2.79 -13.3,4.7 -5.42,1.83 -11.56,3.98 -18.73,6.46 -10.6,3.74 -22.16,7.81 -34.59,12.11 -12.43,4.38 -24.63,6.53 -36.42,6.53 -17.86,6.22 -33.87,11.8 -47.98,16.74 -14.19,4.94 -26.62,9.25 -37.38,12.99 -24.86,8.69 -44.63,20.8 -59.37,36.26 -14.75,15.39 -17.46,37.86 -7.89,67.35 0,0 0.24,0.95 0.87,2.87 0.56,1.75 3.35,3.9 8.05,6.37 0,0 0.32,0.96 0.88,2.71 0.64,1.91 1.51,4.62 2.71,8.37zm3222.07 1893.92c-21.36,-4.78 -41.2,-11.24 -59.61,-19.21 -18.41,-7.97 -36.5,-14.98 -54.28,-21.04 -65.27,-30.6 -116.03,-68.38 -152.3,-113.25 -36.18,-44.86 -72.84,-99.86 -109.66,-164.97 -10.76,-20.88 -21.44,-41.76 -32.12,-62.72 -10.76,-20.88 -21.44,-41.76 -32.2,-62.64 -280.77,-464.72 -529.82,-907.67 -747.08,-1328.79 -217.33,-421.12 -407.41,-798.25 -570.63,-1131.46 -16.65,-27.1 -33.07,-53.24 -49.01,-78.42 -16.1,-25.11 -27.1,-47.02 -33.07,-65.43 -13.15,-40.57 -10.52,-75.4 7.73,-104.33 18.33,-29.01 57.62,-54.03 118.11,-75.15 35.46,-12.35 83.12,-23.91 142.97,-34.51 59.78,-10.6 129.43,3.03 208.97,41.04 51.01,23.28 105.6,60.65 163.78,112.22 58.18,51.56 119.46,121.62 183.62,210.08 48.77,89.74 97.31,184.74 145.61,284.92 48.13,100.18 96.03,199.48 143.77,297.9 95.32,209.05 184.98,412.91 268.9,611.52 84.08,198.68 152.3,360.63 204.74,486.15 28.61,76.27 52.52,131.58 71.49,165.93 19.04,34.51 33.87,49.81 44.55,46.07 7.09,-2.47 13.86,-11.96 20.4,-28.62 6.54,-16.65 13.87,-36.74 22.08,-60.09 6.93,-64.07 9.96,-146.24 9.16,-246.58 -0.8,-100.34 -3.74,-213.27 -8.77,-338.79 -6.29,-141.62 -18.17,-294.56 -35.7,-458.9 -17.61,-164.25 -39.05,-328.27 -64.32,-491.97 -21.67,-152.62 -46.62,-299.98 -74.75,-442.08 -28.21,-142.18 -60.25,-274.71 -96.12,-397.77 -21.43,-66.38 -32.27,-118.11 -32.27,-155.01 -0.16,-36.98 12.27,-59.77 37.14,-68.46 14.18,-4.94 34.35,-6.85 60.41,-5.73 26.14,1.27 56.34,6.05 90.69,14.58 30.84,9.72 61.77,19.61 92.45,29.33 30.84,9.8 59.93,20.16 87.27,31.24 99.62,39.05 184.5,84.4 254.47,135.96 70.13,51.49 119.47,121.54 148.08,210.08 1.19,3.75 2.71,8.37 4.54,13.95 1.75,5.5 3.27,10.12 4.46,13.79 -1.19,8.61 -1.19,14.82 0,18.49 1.2,3.67 2.95,9.24 5.34,16.58 120.11,664.51 173.9,1249.49 161.47,1754.93 -12.43,505.35 -55.55,943.53 -129.35,1314.2 -3.51,13.63 -6.21,26.86 -7.89,39.77 -1.75,12.99 -5.02,24.39 -9.72,34.19 -7.09,27.18 -15.54,49.65 -25.66,67.58 -9.97,17.85 -25.67,30.45 -46.95,37.86 -24.86,8.69 -63.99,10.04 -117.39,3.98 -53.32,-5.97 -124.41,-18.09 -213.35,-36.42zm2191.67 -869.73c2.31,7.33 5.34,13.55 8.85,18.41 3.58,4.86 6.61,11.08 9,18.49 1.12,3.66 2.08,6.45 2.63,8.29 0.64,1.83 0.88,2.71 0.88,2.71 9.56,17.21 17.29,32.03 23.27,44.31 5.9,12.27 8.85,18.41 8.85,18.41l5.42 16.65c9.56,29.49 5.5,56.59 -12.28,81.29 -17.69,24.63 -40.8,42 -69.17,51.89 -3.51,1.19 -7.97,2.79 -13.39,4.62 -5.26,1.91 -10.28,1.59 -15.07,-0.88 -7.09,2.55 -13.62,3.75 -19.52,3.75 -5.98,0.08 -10.68,0.64 -14.19,1.83 0,0 -21.6,3.51 -64.87,10.36 -43.28,6.86 -101.06,2.39 -173.42,-13.39 0,0 -8.53,-2.07 -25.82,-6.45 -17.14,-4.23 -34.59,-9.41 -52.44,-15.54 0,0 -0.88,0.32 -2.63,0.95 -1.84,0.56 -3.27,-0.87 -4.47,-4.62 -13.07,-3.67 -26.06,-7.25 -39.13,-10.92 -13.07,-3.74 -23.67,-6.13 -32.04,-7.33 -34.35,-8.53 -64.07,-17.69 -88.94,-27.5 -24.86,-9.8 -45.66,-22.07 -62.24,-36.74 -19.05,-9.8 -34.75,-21.83 -47.26,-35.94 -12.51,-14.11 -21.68,-30.44 -27.66,-48.85 -19.04,-59.06 -37.61,-116.28 -55.47,-171.67 -17.93,-55.31 -35.86,-110.62 -53.71,-166.01 -21.52,-54.11 -40.89,-107.91 -58.26,-161.47 -17.29,-53.47 -33.71,-104.24 -49.25,-152.22 -125.29,-387.48 -227.06,-720.54 -305.4,-999.24 -78.26,-278.62 -145.53,-529.35 -201.72,-752.02 -33.47,-127.99 -64.95,-249.37 -94.2,-364.46 -29.33,-115.08 -60.09,-228.57 -92.37,-340.46 -9.56,-29.57 -10.44,-56.98 -2.87,-82.25 7.74,-25.18 25.75,-42.88 54.12,-52.76 31.96,-11.16 80.57,-13.79 145.76,-7.73 65.2,5.98 147.05,20.56 245.39,43.68 14.35,7.41 29.09,13.46 44.47,18.41 15.46,4.86 28.53,11.55 39.21,20.16 54.6,22.08 98.51,50.85 131.74,86.39 33.24,35.7 59.46,83.04 78.58,142.1l10.76 33.15c2.39,19.69 5.34,38.18 9.01,55.39 3.51,17.3 8.37,35.07 14.26,53.56 32.44,173.5 75.32,370.11 128.56,589.68 53.23,219.64 127.59,477.07 223.15,772.34 62.08,191.83 134.21,399.76 216.54,623.63 82.24,223.87 174.69,469.9 277.34,738zm1053.91 -848.46c29.65,30.69 58.42,52.44 86.32,65.35 27.89,12.84 54.27,14.91 79.22,6.22 14.1,-4.94 28.93,-14.19 44.31,-27.81 15.38,-13.55 28.37,-28.3 39.05,-44.4 44.79,-69.09 76.59,-166.4 95.24,-292.08 18.65,-125.53 17.85,-250.49 -2.63,-374.82 -13.23,-77.47 -9.49,-139.39 11.07,-185.61 20.73,-46.23 49.34,-79.86 86,-100.9 0,0 1.75,-0.64 5.34,-1.83 3.58,-1.28 7.17,-2.55 10.68,-3.75 14.18,-4.94 29.01,-8.05 44.47,-9.32 15.3,-1.28 30.76,-2.55 46.14,-3.83 33.24,4.86 68.78,13.95 106.72,27.5 37.93,13.38 73,33.07 104.96,58.73 58.26,45.43 106.39,93.33 144.41,143.7 38.01,50.44 66.63,105.12 85.75,164.17 20.33,62.72 30.53,134.13 30.69,214.15 0.24,80.01 -7.26,169.91 -22.48,269.61 -14.02,91.18 -38.97,179 -74.91,263.4 -35.95,84.4 -78.19,155.65 -126.64,213.67 -26.06,29.57 -51.41,54.83 -76.27,75.87 -24.79,20.96 -50.85,38.26 -78.11,51.88l-53.31 18.65c-383.66,133.89 -734.25,76.67 -1051.84,-171.9 -317.6,-248.5 -559.4,-629.21 -725.41,-1142.22 -11.87,-36.9 -23.19,-75.08 -33.95,-114.45 -10.84,-39.29 -20.96,-79.93 -30.52,-121.77 -8.37,-25.83 -15.86,-51.97 -22.4,-78.43 -6.61,-26.45 -12.27,-53.23 -17.13,-80.25 -66.15,-424.63 -44.79,-795.54 64.07,-1112.89 108.87,-317.27 261.57,-545.13 457.94,-683.48 29.57,-18.57 61.21,-36.74 95,-54.75 33.79,-17.94 66.63,-32.52 98.51,-43.68 21.36,-7.41 42.96,-13.87 64.95,-19.52 21.84,-5.58 44.07,-10.28 66.55,-13.95 22.55,-3.75 44.47,-6.3 65.83,-7.65 21.28,-1.28 43.75,-1.91 67.5,-1.91 104.25,4.62 213.11,44.63 326.44,120.1 113.41,75.39 210.48,164.73 291.29,267.94 38.02,44.23 70.77,90.3 98.19,138.2 27.34,47.97 48.14,94.12 62.48,138.35 26.22,81.21 27.34,157.88 3.19,229.93 -24.07,72.12 -82.33,124.24 -174.7,156.52 -14.26,4.94 -32.59,9.32 -55.07,13.07 -22.55,3.75 -43.27,6.85 -62.24,9.4 -7.09,2.48 -14.5,4.07 -22.16,4.71 -7.73,0.55 -15.78,0.32 -23.98,-0.88 -45.11,7.49 -83.29,5.42 -114.77,-6.22 -31.4,-11.63 -51.88,-32.11 -61.44,-61.68l1.75 -12.99c-8.37,-25.82 -17.85,-52.28 -28.61,-79.3 -10.68,-27.02 -20.88,-55.31 -30.45,-84.88 -30.92,-71.33 -67.26,-134.61 -108.86,-189.92 -41.6,-55.31 -85.52,-74.91 -131.74,-58.81 -3.51,1.27 -8.53,4.06 -15.06,8.45 -6.54,4.3 -12.68,9.56 -18.65,15.7 -3.51,1.27 -6.78,3.42 -9.73,6.45 -2.95,3.11 -6.21,5.26 -9.8,6.54 -112.21,166.48 -174.7,385.41 -187.69,657.02 -13.07,271.45 14.51,543.13 82.73,815.06 8.37,38.18 17.93,76.99 28.69,116.28 10.84,39.37 22.08,77.54 34.03,114.44 51.33,158.68 114.84,305.88 190.48,441.76 75.47,135.97 158.99,253.6 250.56,353.06z"/>
  <path class="fil0" d="M16514.41 5360.76l-138.59 48.3c-46.22,16.17 -97.39,35.06 -153.66,56.66 -56.18,21.76 -112.77,48.7 -169.59,80.89 -46.15,16.1 -77.31,33.08 -93.17,50.93 -16.02,17.93 -23.91,45.35 -23.83,82.25 0,0 -0.55,1.27 -1.83,3.66 -1.12,2.55 -1.12,5.58 0.08,9.25 0.08,49.33 1.67,97.07 4.78,143.13 3.03,46.15 8.21,92.61 15.38,139.39 8.53,75.08 19.93,150.15 34.35,225.23 14.43,75.07 32.92,153.89 55.71,236.22 7.17,22.16 17.85,36.9 32.04,44.31 14.26,7.25 33.79,6.7 58.66,-1.99 48.53,-21.12 91.25,-39.05 127.83,-53.88 36.74,-14.9 71.09,-27.97 103.05,-39.13 131.5,-45.82 229.53,-60.57 294.16,-44.15 64.55,16.5 132.62,67.74 203.87,153.74 16.57,14.74 31.87,31 45.42,48.77 13.71,17.85 28.3,38.41 43.68,61.77l3.66 11.15c19.05,58.98 -27.01,118.19 -138.27,177.65 -111.26,59.37 -237.34,115.64 -378.24,168.96 -28.46,9.88 -55.95,19.52 -82.65,28.85 -26.62,9.24 -54.19,18.88 -82.49,28.77 -17.85,6.21 -30.28,13.71 -37.37,22.31 -7.1,8.61 -9.97,27.1 -8.77,55.39 3.59,11.08 6.3,22.48 8.13,34.19 1.75,11.64 3.35,25.5 4.54,41.52 9.56,54.12 26.3,127.36 50.29,219.65 23.91,92.21 56.74,202.99 98.51,332.18 4.78,14.74 10.2,31.32 16.09,49.81 5.98,18.41 14.43,38.09 25.11,58.97 2.39,7.41 5.42,16.66 8.92,27.66 3.59,11.08 6.62,20.32 9.01,27.73 3.59,11 6.85,21.2 9.8,30.45 3.03,9.24 6.3,19.36 9.89,30.44 13.07,28.29 31.79,46.38 56.1,54.35 24.31,7.97 56.03,5.03 95.08,-8.6 53.32,-18.57 123.69,-54.44 211.28,-107.59 87.59,-53.16 198.2,-123.61 331.94,-211.36 8.28,-11.16 17.13,-20.32 26.62,-27.81 9.48,-7.34 20.72,-15.39 33.71,-24.07 10.68,-3.75 21.04,-8.37 31.08,-13.95 10.04,-5.58 20.4,-10.2 31.08,-13.87 67.5,-23.59 130.86,-16.97 190.24,19.85 59.37,36.74 105.68,82.16 138.99,136.28 3.59,11.08 7.73,20.88 12.59,29.49 4.7,8.6 8.85,18.41 12.43,29.48 11.96,36.98 16.42,75.4 13.63,115.41 -2.87,40 -19.05,75.47 -48.69,106.31 -24.87,21.04 -56.43,48.46 -94.84,82.49 -38.5,33.87 -82.57,71.89 -132.14,113.89 -60.33,45.66 -128.07,92.92 -203.31,141.7 -75.07,48.85 -152.94,95.55 -233.43,140.02 -30.84,14.91 -61.84,28.85 -93.25,41.85 -31.4,12.99 -63.04,25.1 -94.99,36.26 -110.15,38.41 -218.85,56.82 -326.12,55.31 -107.2,-1.6 -201.8,-37.3 -283.73,-107.35 -86.63,-35.47 -178.76,-146.01 -276.39,-331.78 -97.54,-185.62 -186.41,-402 -266.34,-649.3 -20.33,-62.8 -39.77,-125.76 -58.26,-189.2 -18.49,-63.28 -36.1,-127.03 -52.84,-190.95 -46.7,-193.19 -82.97,-384.86 -108.95,-575.01 -25.9,-190.08 -36.66,-357.84 -32.27,-503.13l-5.34 -16.58c-1.2,-3.67 -2.16,-6.45 -2.71,-8.29 -0.64,-1.91 -0.96,-2.79 -0.96,-2.79 -7.09,-9.88 -13.63,-17.85 -19.53,-23.99 -5.97,-6.13 -13.07,-9.8 -21.35,-10.99 -17.78,-6.14 -37.7,-15.62 -59.62,-28.46 -21.99,-12.91 -46.06,-29.16 -72.12,-48.85 -26.14,-19.61 -54.36,-42.56 -84.56,-69.02 -30.37,-26.38 -59.77,-53 -88.23,-80.09 -29.72,-30.77 -55.63,-61.69 -77.54,-93.09 -22.08,-31.32 -37.78,-61.69 -47.34,-91.25 -1.2,-3.67 -2.71,-8.29 -4.47,-13.79 -1.83,-5.58 -2.07,-12.67 -0.95,-21.28 -2.39,-7.41 -3.59,-14.19 -3.59,-20.32 -0.08,-6.14 1.12,-11.72 3.51,-16.66 8.13,-72.6 87.9,-152.86 239.41,-240.6 151.5,-87.83 386.53,-189.36 705.08,-304.69 35.54,-12.43 65.99,-21.99 91.41,-28.93 25.5,-6.77 49.49,-12.11 71.97,-15.86 20.24,1.2 42.64,3.67 67.58,7.34 24.95,3.5 56.35,9 94.28,16.33 8.29,1.2 18.09,3.91 29.33,8.21 11.24,4.23 22.87,6.46 34.67,6.46 53.4,18.25 106.79,39.61 160.11,64.15 53.4,24.47 103.93,55.08 151.35,91.9 26.14,19.68 48.69,40.56 67.74,62.64 18.97,22.15 30.84,40.56 35.62,55.31 4.78,14.82 2.15,28.05 -7.89,39.77 -10.04,11.71 -25.66,21.35 -47.02,28.77l-42.56 14.9z"/>
  <path class="fil0" d="M8054.33 16252.96c29.81,32.75 58.9,56.18 87.27,70.45 28.53,14.27 55.71,17.29 81.69,9.16 14.82,-4.62 30.44,-13.78 46.78,-27.33 16.26,-13.55 30.21,-28.45 41.68,-44.63 48.62,-69.98 84.4,-169.6 107.59,-298.95 23.19,-129.26 26.14,-258.61 8.77,-387.8 -11.32,-80.65 -5.58,-144.57 17.21,-191.67 22.72,-47.1 53.48,-80.98 92.05,-101.46 0,0 1.84,-0.63 5.58,-1.75 3.67,-1.2 7.42,-2.39 11.08,-3.51 14.9,-4.7 30.29,-7.41 46.31,-8.21 15.93,-0.79 31.95,-1.59 47.89,-2.39 34.19,6.14 70.69,16.74 109.59,31.96 38.81,15.06 74.35,36.58 106.79,64.24 58.82,48.93 107.11,100.02 144.89,153.49 37.78,53.32 65.67,110.94 83.6,172.63 19.05,65.51 27.5,139.71 25.19,222.43 -2.31,82.81 -12.76,175.57 -31.56,278.22 -17.3,93.89 -45.83,183.87 -85.52,270.02 -39.85,86.07 -85.67,158.28 -137.64,216.69 -27.81,29.81 -54.91,55.16 -81.21,76.04 -26.3,20.8 -53.79,37.85 -82.32,51.08l-55.71 17.46c-400.96,125.76 -761.91,54.91 -1082.77,-212.64 -320.86,-267.62 -559.31,-669.45 -715.2,-1205.57 -11.16,-38.58 -21.76,-78.43 -31.64,-119.47 -9.96,-41.04 -19.2,-83.44 -27.81,-127.04 -7.81,-27.01 -14.83,-54.27 -20.72,-81.85 -6.06,-27.57 -11.08,-55.47 -15.3,-83.6 -55.39,-441.36 -21.84,-824.38 100.49,-1148.91 122.42,-324.69 287.31,-555.25 494.76,-691.93 31.16,-18.17 64.48,-35.94 99.94,-53.4 35.39,-17.45 69.82,-31.4 103.21,-41.84 22.32,-7.01 44.87,-13.07 67.66,-18.09 22.88,-5.1 45.99,-9.17 69.34,-12.27 23.43,-3.19 46.14,-5.1 68.22,-5.66 22.16,-0.64 45.51,-0.56 69.97,0.16 107.75,8.21 219.17,53.31 334.01,135.08 115.01,81.77 212.64,177.33 293.05,286.83 38.02,47.02 70.45,95.8 97.31,146.25 26.86,50.53 46.94,98.9 60.41,145.21 24.63,84.87 23.43,164.17 -3.74,237.97 -27.18,73.64 -89.03,125.76 -185.54,155.97 -14.82,4.7 -34.03,8.61 -57.38,11.71 -23.43,3.19 -44.95,5.66 -64.64,7.73 -7.49,2.32 -15.14,3.67 -23.11,4.07 -8.05,0.32 -16.26,-0.24 -24.78,-1.75 -46.87,6.29 -86.32,2.86 -118.43,-10.21 -32.2,-12.99 -52.76,-34.98 -61.77,-65.83l2.23 -13.3c-7.81,-27.02 -16.89,-54.68 -27.17,-83.05 -10.2,-28.37 -19.93,-57.94 -28.85,-88.78 -29.81,-74.76 -65.44,-141.54 -106.72,-200.12 -41.44,-58.5 -86.23,-80.26 -134.45,-65.11 -3.74,1.19 -9,3.9 -15.94,8.13 -6.85,4.22 -13.39,9.48 -19.68,15.7 -3.75,1.19 -7.17,3.26 -10.36,6.37 -3.11,3.11 -6.54,5.18 -10.2,6.3 -121.22,168.64 -192.71,392.98 -214.47,673.44 -21.84,280.37 -1.59,562.34 60.57,845.9 7.49,39.69 16.26,80.1 26.06,121.22 9.96,41.05 20.56,80.89 31.8,119.39 48.22,165.93 109.27,320.3 183.22,463.36 74.04,143.05 156.85,267.54 248.42,373.46zm2430.6 -3407.85l-144.81 45.51c-48.21,15.14 -101.77,32.99 -160.67,53.55 -58.73,20.49 -118.11,46.55 -177.88,77.87 -48.22,15.14 -80.89,31.72 -97.95,49.73 -17.05,17.93 -26.14,46.06 -27.1,84.24 0,0 -0.71,1.19 -1.99,3.82 -1.35,2.48 -1.35,5.66 -0.24,9.49 -1.43,50.92 -1.19,100.34 0.56,148.16 1.67,47.89 5.66,96.11 11.64,144.73 6.45,77.94 15.94,155.96 28.61,234.07 12.51,78.18 29.33,160.27 50.21,246.26 6.77,23.11 17.37,38.73 31.88,46.78 14.58,8.05 34.74,8.05 60.72,-0.08 50.93,-20.24 95.48,-37.38 133.98,-51.48 38.41,-14.19 74.35,-26.54 107.75,-36.98 137.31,-43.12 239.25,-55.15 305.55,-35.87 66.31,19.13 135.01,74.36 206.26,165.61 16.66,15.86 31.88,33.24 45.51,52.13 13.55,18.89 27.97,40.64 43.27,65.35l3.35 11.47c17.93,61.77 -31.56,121.46 -148.48,179.24 -116.91,57.62 -249.05,111.74 -396.41,162.27 -29.73,9.32 -58.5,18.33 -86.31,27.09 -27.89,8.69 -56.67,17.7 -86.39,27.1 -18.57,5.82 -31.64,13.07 -39.29,21.68 -7.57,8.69 -11.16,27.73 -10.68,57.06 3.35,11.64 5.82,23.43 7.25,35.63 1.51,12.19 2.71,26.54 3.51,43.11 8.21,56.35 23.35,132.62 45.19,228.81 21.91,96.28 52.52,211.92 91.73,346.84 4.46,15.47 9.56,32.84 15.14,52.13 5.58,19.2 13.71,39.92 24.07,61.92 2.23,7.65 5.02,17.29 8.45,28.85 3.34,11.64 6.13,21.28 8.36,28.93 3.35,11.64 6.46,22.24 9.25,31.8 2.87,9.72 5.9,20.32 9.24,31.88 12.75,29.73 31.48,49.01 56.43,58.02 24.86,9 57.78,7.17 98.58,-5.66 55.79,-17.45 129.75,-52.2 221.88,-104.32 92.21,-52.13 208.89,-121.3 349.87,-207.61 8.93,-11.24 18.33,-20.49 28.37,-27.82 10.04,-7.41 21.92,-15.3 35.63,-23.83 11.08,-3.5 21.99,-7.97 32.59,-13.39 10.52,-5.42 21.36,-9.88 32.6,-13.39 70.45,-22.15 135.88,-13.23 196.13,26.86 60.26,40.01 106.8,88.54 139.63,145.61 3.35,11.47 7.26,21.84 12.04,30.92 4.62,9.01 8.6,19.37 12.03,30.92 11.16,38.58 14.67,78.5 10.44,119.87 -4.14,41.28 -22.07,77.38 -53.55,108.31 -26.38,20.88 -59.94,48.29 -100.74,82.08 -40.81,33.87 -87.51,71.73 -140.19,113.49 -63.84,45.27 -135.32,91.89 -214.54,139.87 -79.3,48.06 -161.15,93.72 -245.79,137.08 -32.28,14.34 -64.87,27.73 -97.71,40.17 -32.83,12.35 -65.99,23.83 -99.38,34.35 -115.08,36.1 -228.09,51.56 -339.03,46.38 -110.86,-5.26 -207.61,-45.27 -290.26,-120.42 -88.54,-39.61 -180.35,-157.01 -275.59,-352.34 -95.24,-195.26 -180.51,-422.08 -255.67,-680.54 -19.05,-65.51 -37.14,-131.34 -54.35,-197.57 -17.14,-66.06 -33.55,-132.53 -48.86,-199.32 -42.31,-201.31 -73.95,-400.79 -94.91,-598.28 -20.97,-197.57 -26.94,-371.47 -17.94,-521.54l-5.1 -17.37c-1.11,-3.83 -1.91,-6.78 -2.47,-8.69 -0.56,-1.99 -0.87,-2.87 -0.87,-2.87 -7.02,-10.44 -13.55,-18.89 -19.61,-25.5 -5.9,-6.54 -13.15,-10.52 -21.68,-12.04 -18.17,-7.01 -38.49,-17.45 -60.81,-31.48 -22.31,-14.03 -46.62,-31.64 -73.08,-52.84 -26.46,-21.2 -54.83,-45.9 -85.35,-74.2 -30.53,-28.29 -60.18,-56.9 -88.79,-85.83 -29.72,-32.68 -55.55,-65.59 -77.38,-98.82 -21.76,-33.16 -37.14,-65.12 -46.15,-95.96 -1.11,-3.82 -2.47,-8.69 -4.22,-14.42 -1.67,-5.82 -1.75,-13.23 -0.32,-22.08 -2.23,-7.73 -3.19,-14.74 -3.03,-21.12 0.16,-6.38 1.52,-12.03 4.15,-17.06 10.6,-74.91 95.63,-155.25 255.03,-241 159.39,-85.83 405.65,-183.06 738.63,-291.77 37.22,-11.64 68.94,-20.56 95.56,-26.78 26.53,-6.21 51.56,-10.92 74.91,-14.03 20.8,1.84 43.99,5.11 69.66,9.73 25.66,4.54 58.02,11.24 97.07,20.08 8.52,1.44 18.49,4.62 30.04,9.41 11.48,4.86 23.35,7.41 35.71,7.81 54.59,20.72 109.1,44.71 163.62,71.72 54.43,27.1 105.67,60.49 153.65,100.1 26.46,21.2 49.17,43.52 68.14,67.03 19.05,23.51 30.77,42.95 35.23,58.42 4.54,15.38 1.35,29.01 -9.41,40.8 -10.76,11.8 -27.25,21.2 -49.49,28.21l-44.63 13.95zm1892.73 -1035.74c-9.41,-60.25 -12.75,-103.29 -10.28,-129.35 2.63,-26.06 14.98,-42.56 37.29,-49.57 14.83,-4.7 35.71,-5.9 62.65,-3.91 27.01,2.07 59.93,7.57 98.9,16.34 145.77,55.31 257.66,102.25 335.76,140.91 78.03,38.57 133.18,78.18 165.14,118.58 13.07,16.98 23.67,32.6 31.88,46.87 8.2,14.18 15.06,31.08 20.72,50.29 4.46,15.46 8.84,34.11 13.15,55.86 4.38,21.76 5.5,43.52 3.74,65.12 17.7,116.51 37.46,233.43 59.46,350.66 21.91,117.32 44.07,235.51 66.62,354.73 38.18,173.11 77.47,342.94 117.64,509.11 40.24,166.33 82.8,326.52 127.67,480.89 72.92,250.65 148.72,483.52 227.46,698.78 78.74,215.19 151.18,394.51 217.17,537.96 10.44,21.92 19.37,42.24 26.86,60.97 7.41,18.73 13.47,35.78 17.93,51.16 8.93,30.93 11.64,54.2 8.13,70.06 -3.43,15.86 -12.59,26.06 -27.5,30.76 -14.82,4.62 -34.82,5.66 -59.85,2.95 -25.1,-2.63 -52.84,-7.57 -83.36,-14.9 -92.85,-12.84 -168.32,-25.03 -226.34,-36.27 -57.94,-11.31 -105.68,-25.74 -143.22,-43.43 -29.01,-16.18 -53.16,-32.76 -72.2,-49.97 -19.21,-17.14 -38.34,-37.46 -57.23,-60.89 -78.26,-101.77 -171.34,-219.8 -279.25,-354.41 -108.07,-134.45 -220.29,-269.62 -336.72,-405.66 -29.81,-32.68 -58.66,-65.75 -86.63,-99.06 -27.9,-33.32 -54.92,-67.03 -80.9,-100.9 -90.53,-102.01 -177.72,-199.88 -261.64,-293.52 -83.92,-93.65 -162.98,-177.25 -237.02,-250.73 -30.92,-36.58 -55.71,-59.38 -74.44,-68.22 -18.89,-8.85 -31.88,-12.04 -39.29,-9.73 -3.74,1.2 -6.37,6.14 -7.81,14.99 -1.51,8.92 -2.39,19.76 -2.79,32.51 1.12,3.83 2.55,8.61 4.23,14.43 1.67,5.82 3.1,10.6 4.22,14.5 0,0 0.24,0.88 0.8,2.87 0.55,1.92 0.87,2.87 0.87,2.87 0,0 0.24,0.96 0.8,2.87 0.56,1.99 2.79,2.31 6.46,1.12 0,0 0.23,1.03 0.79,2.95 0.64,1.99 0.88,2.86 0.88,2.86 36.58,98.03 72.04,202.59 106.47,313.85 34.35,111.26 68.38,224.75 102.02,340.47 5.65,19.28 12.35,39.21 20.48,59.85 7.97,20.64 14.74,40.65 20.32,59.85 56.11,192.87 112.69,377.21 169.92,552.78 57.14,175.73 110.69,314.65 160.66,416.82 26.86,92.53 41.61,160.51 44.16,203.94 2.47,43.44 -11.16,69.74 -40.89,79.14 -14.82,4.62 -37.93,5.5 -69.1,2.71 -31.16,-2.87 -70.61,-9.48 -118.19,-19.76 -85.03,-27.98 -158.91,-55.39 -221.31,-82.09 -62.49,-26.62 -117.88,-53.48 -166.17,-80.34 -55.47,-37.45 -100.34,-80.09 -134.53,-128.31 -34.27,-48.22 -62.09,-108.94 -83.36,-182.19 -1.2,-3.82 -2.32,-7.65 -3.43,-11.55 -1.12,-3.83 -0.32,-8.29 2.23,-13.39 -1.12,-3.75 -2.23,-7.65 -3.35,-11.48 -1.11,-3.9 -2.23,-7.73 -3.34,-11.63l-16.82 -57.78c-49.41,-169.76 -95.4,-338.4 -137.96,-505.92 -42.63,-167.68 -82,-334.25 -117.95,-499.7 -39.69,-164.26 -79.46,-325.48 -119.22,-483.36 -39.93,-158.04 -81.69,-312.18 -125.45,-462.65l-57.22 -196.61c-1.83,-20.48 -5.58,-40.4 -11.24,-59.61 -5.58,-19.29 -10.6,-36.74 -15.14,-52.12 -2.23,-7.73 -4.14,-14.43 -5.82,-20.25 -1.75,-5.74 -3.11,-10.6 -4.22,-14.42 -14.91,-37.38 -37.7,-77.63 -68.46,-120.58 -30.77,-42.96 -78.18,-104.96 -142.18,-185.86 -61.77,-73.16 -110.22,-131.66 -145.21,-175.41 -34.99,-43.67 -55.87,-77.15 -62.56,-100.34 -7.89,-26.94 -1.76,-47.82 18.25,-62.48 20,-14.67 48.61,-27.9 85.75,-39.53l55.71 -17.53c27.18,-4.23 52.04,-8.93 74.92,-14.03 22.87,-5.02 45.9,-9.17 69.33,-12.19 99.94,-18.81 176.85,-26.07 230.65,-21.92 53.87,4.14 107.75,29.33 161.78,75.55 21.52,18.41 44.23,40.81 68.14,67.03 23.75,26.14 50.53,55.62 80.34,88.38 63.28,64.32 131.58,135.49 204.9,213.43 73.32,78.02 148.71,159.55 226.1,244.75 5.9,6.61 12.19,14.11 18.73,22.55 6.45,8.45 14.58,15.38 24.23,20.8 172.7,189.92 331.38,366.37 476.03,529.27 144.57,162.98 232.31,262.84 263.24,299.42 27.17,37.78 50.36,65.2 69.49,82.33 19.21,17.14 32.52,24.55 39.93,22.16 7.41,-2.31 10.76,-11.8 9.96,-28.3 -0.8,-16.65 -3.98,-34.58 -9.56,-53.87 -38.5,-118.43 -76.11,-233.91 -112.85,-346.6 -36.82,-112.54 -73.88,-226.1 -111.26,-340.71 -7.89,-26.94 -16.02,-54.91 -24.39,-83.84 -8.45,-28.93 -16.57,-56.9 -24.39,-83.92 -40.4,-138.83 -78.82,-281.41 -115.24,-427.81 -36.5,-146.41 -71.09,-296.56 -103.68,-450.45zm2300.85 -949.11l27.82 -8.77c81.69,-25.66 166.72,-18.65 255.27,20.88 88.38,39.61 165.61,89.1 231.52,148.32 21.51,18.57 41.28,37.61 59.05,57.22 17.93,19.68 33.31,38.01 46.38,54.91 8.21,14.27 15.23,27.81 20.96,40.8 5.82,12.84 10.37,25.11 13.71,36.74 10.12,34.67 2,62.49 -24.38,83.37 -26.3,20.88 -61.69,38.25 -106.32,52.28 -65.67,24.86 -123.29,46.06 -172.86,63.76 -49.57,17.61 -92.37,34.19 -128.4,49.73 -87.98,31.8 -138.67,56.18 -151.98,72.92 -13.39,16.82 -14.9,42.56 -4.86,77.31 54.51,340.62 116.52,662.04 186.17,964.33 69.66,302.13 139.23,572.86 208.73,811.95 40.41,138.92 79.78,267.55 118.27,385.9 38.49,118.43 73.64,225.3 105.36,320.54 26.14,75.95 49.73,143.22 70.85,201.87 21.12,58.58 37.22,107.19 48.46,145.77 14.26,62.88 21.91,117.31 23.19,163.22 1.11,45.9 -18.73,75.31 -59.54,88.06 -14.82,4.71 -33.31,7.34 -55.39,7.89 -22.15,0.64 -47.81,-0.71 -77.22,-4.14 -37.86,-4.94 -73,-10.76 -105.28,-17.45 -32.36,-6.7 -63.76,-13.63 -94.28,-20.89 -107.43,-21.12 -195.1,-54.59 -263.16,-100.57 -68.06,-45.91 -118.35,-124.89 -150.87,-236.78 -5.66,-19.29 -11.08,-41.68 -16.58,-67.35 -5.42,-25.74 -10.2,-52.6 -14.34,-80.81 -31.08,-120.66 -62.09,-241.4 -93.17,-362.06 -31,-120.74 -62.72,-243.48 -94.84,-368.04 -50.84,-202.83 -100.57,-405.1 -149.03,-606.66 -48.46,-201.55 -95.72,-402.47 -141.78,-602.59 -8.29,-56.34 -16.02,-107.59 -23.35,-153.65 -7.41,-46.07 -15.54,-84.56 -24.47,-115.41 -15.7,-54.03 -35.94,-88.7 -60.65,-104.08 -24.79,-15.38 -55.71,-17.29 -92.77,-5.66 -25.98,8.13 -55.78,20.64 -89.34,37.54 -33.63,16.89 -68.62,39.45 -104.96,67.66 -3.74,1.12 -8.05,3.59 -13.15,7.25 -4.94,3.67 -10.6,8.61 -16.89,14.83 -13.71,8.45 -28.38,17.29 -44,26.38 -15.54,9.08 -30.84,15.94 -45.66,20.64 -81.61,25.58 -157.25,19.84 -226.82,-17.3 -69.5,-36.97 -124.41,-82.96 -164.58,-137.71 -1.11,-3.83 -2.94,-6.46 -5.34,-7.73 -2.47,-1.44 -4.14,-3.99 -5.26,-7.81 -16.41,-28.53 -31.71,-53.16 -45.9,-74.04 -14.19,-20.8 -24.55,-42.8 -31.32,-65.99 -11.16,-38.49 -12.27,-77.07 -3.27,-115.72 9.09,-38.57 31.72,-71.97 68.06,-100.26 20.01,-14.74 41.29,-28.69 63.76,-42.08 22.47,-13.39 43.75,-27.42 63.76,-42.08 202.19,-126.64 407.49,-232 615.98,-316.4 208.4,-84.32 399.92,-153.89 574.45,-208.64l100.26 -31.4zm2450.37 -99.71l-144.81 45.43c-48.22,15.14 -101.78,33.08 -160.67,53.56 -58.74,20.56 -118.11,46.62 -177.81,77.94 -48.29,15.14 -80.97,31.72 -98.02,49.65 -17.06,17.94 -26.14,46.15 -27.1,84.32 0,0 -0.72,1.2 -1.91,3.75 -1.36,2.55 -1.44,5.66 -0.32,9.48 -1.44,51.01 -1.2,100.42 0.56,148.24 1.75,47.9 5.65,96.11 11.63,144.65 6.46,78.02 15.94,156.05 28.61,234.15 12.52,78.18 29.33,160.19 50.21,246.26 6.78,23.12 17.38,38.74 31.88,46.71 14.59,8.12 34.75,8.12 60.73,0 50.93,-20.25 95.48,-37.38 133.97,-51.57 38.42,-14.1 74.36,-26.46 107.75,-36.98 137.32,-43.03 239.25,-55.07 305.56,-35.86 66.31,19.21 135.01,74.36 206.26,165.69 16.65,15.86 31.87,33.23 45.5,52.04 13.55,18.89 27.98,40.73 43.28,65.35l3.35 11.56c17.93,61.68 -31.56,121.46 -148.4,179.16 -117,57.7 -249.13,111.81 -396.49,162.26 -29.73,9.33 -58.5,18.41 -86.31,27.1 -27.9,8.76 -56.67,17.77 -86.4,27.09 -18.57,5.82 -31.56,13.07 -39.29,21.76 -7.57,8.69 -11.15,27.74 -10.68,57.07 3.35,11.55 5.82,23.35 7.26,35.62 1.59,12.11 2.71,26.54 3.5,43.04 8.21,56.42 23.35,132.69 45.19,228.89 21.92,96.27 52.52,211.91 91.73,346.84 4.47,15.38 9.57,32.83 15.14,52.12 5.58,19.21 13.71,39.93 24.07,61.84 2.23,7.74 5.02,17.38 8.45,28.93 3.35,11.64 6.14,21.2 8.37,28.93 3.35,11.56 6.45,22.16 9.24,31.8 2.87,9.73 5.9,20.33 9.25,31.8 12.75,29.73 31.48,49.1 56.42,58.1 24.87,9.01 57.78,7.17 98.59,-5.66 55.79,-17.45 129.75,-52.28 221.88,-104.32 92.21,-52.12 208.88,-121.3 349.87,-207.69 8.92,-11.16 18.33,-20.48 28.37,-27.81 10.04,-7.34 21.92,-15.23 35.62,-23.83 11.08,-3.43 22,-7.97 32.6,-13.39 10.52,-5.34 21.44,-9.89 32.6,-13.39 70.45,-22.08 135.88,-13.15 196.13,26.94 60.25,40 106.79,88.46 139.63,145.52 3.35,11.56 7.25,21.92 12.03,31 4.63,9.01 8.61,19.29 12.04,30.93 11.16,38.49 14.66,78.42 10.44,119.86 -4.15,41.28 -22.08,77.31 -53.56,108.23 -26.3,20.96 -59.93,48.3 -100.74,82.17 -40.8,33.87 -87.5,71.64 -140.18,113.41 -63.84,45.26 -135.33,91.97 -214.55,139.94 -79.22,47.98 -161.14,93.73 -245.78,137.08 -32.28,14.35 -64.88,27.74 -97.71,40.09 -32.84,12.43 -65.99,23.91 -99.38,34.35 -115.09,36.18 -228.1,51.64 -339.04,46.46 -110.85,-5.26 -207.61,-45.34 -290.25,-120.5 -88.55,-39.53 -180.36,-156.92 -275.59,-352.26 -95.24,-195.34 -180.52,-422.15 -255.67,-680.53 -19.05,-65.51 -37.14,-131.42 -54.36,-197.57 -17.13,-66.15 -33.47,-132.62 -48.85,-199.32 -42.32,-201.32 -73.96,-400.8 -94.92,-598.37 -20.96,-197.57 -26.94,-371.39 -17.93,-521.54l-5.1 -17.37c-1.12,-3.83 -1.91,-6.7 -2.47,-8.61 -0.56,-1.99 -0.88,-2.87 -0.88,-2.87 -7.01,-10.44 -13.55,-18.89 -19.52,-25.5 -5.98,-6.54 -13.23,-10.52 -21.76,-12.11 -18.17,-6.94 -38.5,-17.38 -60.81,-31.41 -22.24,-14.02 -46.62,-31.71 -73.08,-52.83 -26.46,-21.2 -54.83,-45.91 -85.36,-74.2 -30.52,-28.37 -60.17,-56.91 -88.7,-85.84 -29.81,-32.67 -55.63,-65.67 -77.39,-98.82 -21.83,-33.15 -37.22,-65.11 -46.22,-96.04 -1.12,-3.82 -2.47,-8.6 -4.15,-14.42 -1.75,-5.74 -1.75,-13.15 -0.31,-22 -2.32,-7.73 -3.27,-14.74 -3.11,-21.12 0.16,-6.37 1.51,-12.03 4.14,-17.13 10.6,-74.84 95.64,-155.25 255.11,-240.93 159.32,-85.83 405.58,-183.06 738.55,-291.77 37.22,-11.71 69.02,-20.56 95.56,-26.85 26.54,-6.14 51.57,-10.92 74.92,-13.95 20.8,1.83 44.07,5.02 69.65,9.64 25.66,4.62 58.02,11.32 97.07,20.09 8.53,1.51 18.49,4.7 30.05,9.48 11.47,4.78 23.43,7.41 35.7,7.81 54.6,20.72 109.11,44.63 163.62,71.65 54.43,27.17 105.68,60.49 153.66,100.18 26.46,21.2 49.17,43.51 68.14,67.02 19.05,23.51 30.76,42.96 35.22,58.34 4.55,15.46 1.36,29.09 -9.4,40.88 -10.76,11.8 -27.26,21.2 -49.49,28.22l-44.63 13.94z"/>
  <path class="fil0" d="M21007.65 12876.91c0,0 2.39,1.35 7.26,4.06 4.86,2.63 10.2,7.34 16.17,13.87 3.43,11.56 8.05,20.56 14.03,27.1 5.9,6.61 10.52,15.7 13.87,27.26 2.31,7.65 4.22,17.61 5.66,29.72 1.51,12.2 0.24,25.27 -3.83,39.13 -1.75,21.6 -10.44,44.32 -25.74,68.06 -15.38,23.75 -40.01,47.27 -73.72,70.54 -62.72,49.01 -116.84,89.26 -162.5,120.42 -45.59,31.08 -88.94,53.08 -129.75,65.91 -22.24,7.01 -44.47,10.76 -66.55,11.4 -22.15,0.63 -45.9,-1.36 -71.64,-5.9 -40.09,-12.67 -82.81,-33.95 -128,-64 -45.19,-30.05 -100.34,-66.47 -165.37,-109.1 -62.56,-47.74 -126.48,-97.16 -191.99,-148.08 -65.43,-51.09 -129.43,-100.42 -191.91,-148.16 -165.61,-137.48 -317.91,-274.79 -457.06,-412.11 -139.23,-137.32 -248.98,-260.69 -329.47,-370.12 -7.09,-10.44 -14.11,-20.8 -21.28,-31.24 -7.01,-10.44 -14.11,-20.8 -21.12,-31.24 -43.99,-53.55 -80.73,-89.34 -110.3,-107.43 -29.65,-18.09 -49.89,-25.34 -61.05,-21.84 -14.9,4.63 -23.11,25.11 -24.7,61.37 -1.6,36.26 3.74,75.63 16.09,118.03l324.05 1072.64 43.68 150.39c17.93,61.69 25.58,108.79 22.79,141.15 -2.71,32.43 -22.63,54.51 -59.77,66.14 -25.98,8.21 -62.25,12.2 -108.95,12.12 -46.54,-0.08 -103.68,1.99 -171.27,6.37 -25.66,-4.62 -51,-8.2 -76.11,-10.83 -25.1,-2.71 -48.53,-6.86 -70.53,-12.6 -113.33,-27.65 -192.23,-69.09 -236.7,-124.56 -44.47,-55.47 -81.93,-135.33 -112.21,-239.49 -2.23,-7.73 -4.47,-15.38 -6.7,-23.11 -2.23,-7.74 -3.19,-17.94 -2.79,-30.69 -2.31,-7.73 -4.54,-15.38 -6.77,-23.11 -2.23,-7.81 -4.46,-15.46 -6.7,-23.19 -74.83,-271.13 -139.63,-525.36 -194.46,-762.86 -54.83,-237.34 -105.52,-470.93 -151.98,-700.46 -15.86,-95.95 -32.52,-191.75 -50.13,-287.31 -17.61,-95.39 -34.35,-191.19 -50.05,-287.23 0.24,-12.75 -0.32,-25.18 -1.83,-37.29 -1.44,-12.2 -2.63,-26.62 -3.43,-43.12 -3.35,-11.64 -5.74,-23.51 -7.25,-35.62 -1.59,-12.2 -3.99,-24.07 -7.33,-35.55 -1.12,-3.9 -2,-6.85 -2.55,-8.77 -0.56,-1.91 -1.36,-4.78 -2.47,-8.68 -1.12,-3.83 -1.76,-5.74 -1.76,-5.74 0,0 -0.48,-1.91 -1.59,-5.74 -4.94,-2.71 -7.89,-5.98 -9.01,-9.88 -1.11,-3.91 -2.23,-7.65 -3.34,-11.56 -5.9,-6.61 -30.93,-26.06 -74.76,-58.58 -43.91,-32.59 -92.85,-71.96 -146.72,-118.11 -20.48,-14.66 -40.33,-30.52 -59.46,-47.66 -19.2,-17.13 -37.69,-35.54 -55.55,-55.15 -34.58,-35.46 -66.14,-70.85 -94.68,-106.07 -28.45,-35.31 -47.73,-70.22 -57.78,-104.88 -1.19,-3.91 -2.31,-7.81 -3.42,-11.64 -1.12,-3.9 -2.23,-7.73 -3.35,-11.56 -0.8,-16.57 1.28,-34.03 6.06,-52.36 4.78,-18.41 11.63,-33.15 20.48,-44.31 74.6,-78.18 168.88,-150.86 283,-218.29 114.13,-67.34 239.81,-122.57 377.21,-165.69 44.55,-13.95 89.66,-25.98 135.33,-36.18 45.66,-10.04 91.33,-20.24 137.07,-30.29 240.29,-37.53 484.88,-21.67 733.93,47.42 248.98,69.26 456.19,220.92 621.56,455.31 11.88,13.07 20.96,27.02 27.42,41.92 6.29,14.83 13.55,29.33 21.75,43.6 9.33,18.17 16.26,34.98 20.73,50.37 4.46,15.38 8.92,30.84 13.39,46.22 41.52,142.74 30.6,286.11 -32.84,430.21 -63.52,144.09 -140.51,276.54 -230.88,397.52 -20.4,27.42 -39.85,54.6 -58.34,81.45 -18.49,26.86 -38.49,52.05 -60.01,75.64 -20.41,27.49 -38.18,49.89 -53.4,67.26 -15.22,17.46 -27.26,31.72 -36.18,42.96 -6.3,6.21 -9.8,11.47 -10.52,15.94 -0.8,4.38 0,10.44 2.23,18.17 3.43,11.63 14.9,26.86 34.67,45.98 19.68,19.05 46.86,46.31 81.53,81.77 174.53,168.24 376.17,339.67 605.22,513.97 228.89,174.38 473.64,347 733.93,517.87 39.77,25.34 79.85,51.8 120.26,79.06 40.25,27.34 80.41,53.72 120.18,79.06zm-2579.71 -2372.42c9.24,18.17 18.73,43.59 28.29,76.43 9.49,32.67 19.37,66.46 29.41,101.21 1.12,3.83 2.55,8.61 4.22,14.43 1.68,5.82 3.03,10.6 4.23,14.5 1.11,3.83 2.23,7.65 3.35,11.48 1.11,3.9 1.67,5.82 1.67,5.82 12.35,42.4 22.55,81.29 30.84,116.59 8.21,35.31 12.12,59.3 11.8,72.05 4.46,15.46 7.73,30.21 9.88,44.31 2.07,14.11 4.7,26.86 8.05,38.42 4.22,28.13 8.69,54.11 13.55,77.86 4.86,23.75 10.68,47.18 17.37,70.29 16.82,57.94 36.82,102.09 59.93,132.7 23.12,30.68 49.42,41.36 79.14,32.04 18.65,-5.82 42.08,-22.72 70.45,-50.53 28.38,-27.82 56.59,-63.04 84.72,-105.44 121.22,-168.56 202.43,-314.01 243.88,-436.42 41.44,-122.42 51.4,-220.28 30.12,-293.53 -20.16,-69.41 -69.26,-116.12 -147.04,-140.1 -77.94,-23.99 -168.8,-19.61 -272.8,12.99l-22.24 7.01c0,0 -1.83,0.56 -5.58,1.75 -3.66,1.12 -5.58,1.76 -5.58,1.76 -3.66,1.11 -5.5,1.67 -5.5,1.67 0,0 0,0 0,0 -2.63,5.02 -5.73,8.13 -9.48,9.32 -3.74,1.2 -5.58,1.76 -5.58,1.76 -3.66,1.19 -8.37,2.63 -13.94,4.38 -5.58,1.75 -12.12,3.75 -19.53,6.14 -11.16,3.5 -23.19,7.25 -36.18,11.32 -12.99,4.06 -25.59,5.89 -37.86,5.57 -18.57,5.82 -35.31,11.08 -50.13,15.7 -14.82,4.71 -27.81,8.77 -38.97,12.28 -25.98,8.13 -46.86,19.92 -62.64,35.38 -15.78,15.46 -19.13,38.66 -10.2,69.5 0,0 0.32,0.96 0.87,2.87 0.56,1.99 3.27,4.3 8.05,6.93 0,0 0.32,0.96 0.88,2.87 0.56,1.91 1.43,4.78 2.55,8.69z"/>
  <path class="fil1" d="M1754.92 23579.99c-23.12,-14.51 -51.97,-37.3 -86.71,-68.62 -34.59,-31.24 -69.26,-70.93 -103.93,-119.07 -28.85,-43.28 -60.65,-95.08 -95.4,-155.17 -34.67,-60.17 -63.52,-126.32 -86.63,-198.53 69.34,-62.56 134.29,-103.44 194.94,-122.65 60.73,-19.29 119.95,-36.1 177.73,-50.53 80.89,-14.42 150.22,-38.49 208.08,-72.2 57.71,-33.71 101.06,-117.88 129.91,-252.64 144.41,-476.35 267.22,-848.06 368.36,-1115.12 101.14,-267.07 197.89,-458.34 290.34,-573.82 46.22,-57.7 93.88,-99.78 142.97,-126.32 49.1,-26.46 99.78,-39.69 151.75,-39.69 40.4,0 85.19,4.86 134.29,14.5 49.09,9.57 99.62,26.46 151.74,50.45l-156.13 -382.46c0,-4.87 -1.43,-9.65 -4.3,-14.51 -2.87,-4.78 -7.17,-9.56 -12.99,-14.42 -5.74,-4.79 -10.04,-10.84 -12.99,-18.02 -2.87,-7.25 -4.31,-13.23 -4.31,-18.01 0,-4.86 0,-8.45 0,-10.84 0,-2.47 2.87,-6.05 8.69,-10.84 11.56,-14.42 28.85,-26.46 51.96,-36.1 23.12,-9.64 57.78,-14.42 104.01,-14.42l43.35 0c231.13,14.42 423.2,81.77 576.29,202.11 153.1,120.26 299.11,375.29 437.78,765.01 115.48,336.88 238.21,802.39 368.28,1396.69 129.99,594.22 284.52,1367.68 463.68,2320.46 -5.74,19.21 -27.5,33.71 -64.96,43.28 -37.61,9.64 -82.4,14.42 -134.37,14.42 -51.96,0 -109.74,-3.58 -173.34,-10.76 -63.6,-7.25 -127.19,-18.09 -190.71,-32.51 -86.63,-19.21 -171.83,-40.89 -255.59,-64.96 -83.84,-24.07 -151.66,-48.13 -203.79,-72.2 -23.03,-9.57 -43.19,-20.41 -60.65,-32.44 -17.29,-12.03 -28.93,-22.87 -34.66,-32.52 -5.74,-43.27 -10.12,-85.35 -12.99,-126.32 -2.87,-40.88 -4.31,-80.57 -4.31,-119.06 -5.74,-62.57 -11.55,-121.46 -17.29,-176.85 -5.9,-55.31 -11.64,-111.9 -17.38,-169.6 -11.55,-91.41 -24.54,-185.21 -39.05,-281.49 -14.42,-96.27 -33.15,-206.89 -56.26,-332.01 0,-4.79 0,-9.65 0,-14.43 0,-4.78 -2.95,-9.64 -8.69,-14.42 -5.74,-33.72 -14.43,-57.78 -26.06,-72.21 -11.48,-14.43 -34.59,-21.68 -69.26,-21.68 -5.82,0 -11.55,0 -17.29,0 -5.82,0 -11.64,0 -17.38,0 -5.81,4.86 -11.55,7.25 -17.37,7.25 -5.74,0 -14.43,0 -25.98,0l-684.68 64.96c-63.52,4.78 -106.87,14.42 -129.99,28.85 -23.11,14.42 -37.61,40.96 -43.35,79.46 -40.49,211.67 -69.34,410.2 -86.71,595.41 -17.29,185.3 -31.72,364.54 -43.36,537.72 -5.73,33.71 -27.33,58.97 -64.95,75.79 -37.54,16.82 -82.33,25.27 -134.37,25.27 -57.7,0 -124.17,-8.45 -199.32,-25.27 -75,-16.82 -153.1,-42.08 -233.99,-75.79 -57.78,-24.07 -114.05,-50.53 -169.04,-79.38 -54.83,-28.85 -105.44,-60.17 -151.66,-93.8 -17.3,-14.51 -31.72,-26.46 -43.28,-36.11 -11.55,-9.64 -20.24,-19.28 -25.98,-28.93 -5.82,-9.56 -11.55,-19.2 -17.29,-28.85 -5.9,-9.64 -8.77,-24.06 -8.77,-43.27 0,-24.07 0,-48.14 0,-72.21 0,-24.07 0,-48.13 0,-72.12 -5.74,-24.07 -8.61,-48.14 -8.61,-72.21 0,-24.07 0,-45.74 0,-64.95 0,-91.41 4.31,-181.63 12.91,-270.65 8.77,-89.02 21.76,-179.24 39.06,-270.65zm1343.37 -909.51c0,28.93 5.82,48.14 17.37,57.78 11.48,9.65 34.67,14.43 69.26,14.43l624.11 0c-11.64,-91.41 -37.62,-233.35 -78.03,-425.82 -40.48,-192.47 -95.39,-418.65 -164.65,-678.46 0,-9.65 -4.3,-18.09 -13.07,-25.27 -8.69,-7.25 -15.86,-13.23 -21.6,-18.09 -5.82,0 -10.12,-1.19 -12.99,-3.59 -2.87,-2.39 -7.33,-3.58 -13.07,-3.58 0,0 -1.43,0 -4.3,0 -2.95,0 -7.26,0 -12.99,0 -5.82,4.78 -10.13,8.45 -12.99,10.84 -2.87,2.39 -4.31,5.97 -4.31,10.84 -57.86,81.77 -111.33,176.76 -160.43,285.07 -49.09,108.23 -91.01,220.13 -125.68,335.61 -23.03,76.98 -41.84,152.78 -56.35,227.37 -14.42,74.6 -24.46,145.53 -30.28,212.87zm2721.33 1898.31c-69.25,-14.43 -121.29,-36.1 -155.96,-64.96 -34.67,-28.93 -60.65,-60.17 -78.03,-93.88 -17.29,-23.99 -27.41,-49.25 -30.28,-75.79 -2.87,-26.46 -4.3,-46.86 -4.3,-61.29l0 -36.1c5.73,-206.89 10.04,-401.83 12.91,-584.66 2.95,-182.82 7.25,-360.87 12.99,-534.13 0,-221.32 2.87,-431.8 8.68,-631.52 5.74,-199.64 14.51,-398.16 26.07,-595.41 11.47,-226.18 27.33,-453.56 47.65,-682.13 20.17,-228.57 47.66,-470.29 82.33,-725.32 0,-9.65 0,-18.1 0,-25.27 0,-7.25 2.87,-15.7 8.69,-25.26 5.74,-67.43 25.9,-129.91 60.65,-187.69 34.67,-57.78 95.32,-86.63 181.95,-86.63 46.22,0 99.7,9.64 160.35,28.85 60.73,19.29 128.55,50.53 203.7,93.88l147.36 101.06c28.85,14.43 49.1,36.1 60.65,64.95 11.48,28.85 20.16,57.7 25.9,86.63 5.9,14.43 8.77,28.85 8.77,43.28 0,14.42 0,28.85 0,43.28 0,28.93 -1.43,55.38 -4.3,79.45 -3.03,23.99 -7.34,48.06 -13.07,72.13 -5.82,19.29 -10.13,34.91 -12.99,46.94 -2.87,12.03 -4.31,18.01 -4.31,18.01 -46.22,255.03 -83.84,561.79 -112.69,920.26 -28.93,358.48 -43.36,732.58 -43.36,1122.38 0,86.63 1.52,173.18 4.39,259.81 2.87,86.63 4.3,175.65 4.3,267.06 5.74,197.26 15.86,393.39 30.37,588.25 14.42,194.86 30.28,383.74 47.66,566.57l0 79.37c0,4.87 0,9.65 0,14.51 0,4.78 0,9.56 0,14.42 -5.82,33.64 -15.94,63.76 -30.37,90.22 -14.42,26.46 -38.97,39.69 -73.72,39.69 -5.74,0 -17.29,-2.39 -34.59,-7.25 -17.37,-4.78 -34.67,-9.57 -51.96,-14.43 -23.19,-9.64 -46.22,-20.4 -69.42,-32.43 -23.03,-12.04 -46.22,-22.88 -69.25,-32.52 -11.64,-4.78 -24.63,-10.84 -39.05,-18.01 -14.51,-7.25 -30.37,-13.23 -47.66,-18.09 -46.23,-24.07 -92.45,-44.47 -138.68,-61.37 -46.22,-16.82 -86.71,-32.44 -121.38,-46.86zm1560.07 -3839.81c63.6,-182.9 160.36,-347.64 290.34,-494.44 129.99,-146.72 313.45,-220.12 550.31,-220.12 190.71,0 352.42,48.14 485.35,144.33 132.94,96.27 234,257.42 303.41,483.6 5.74,14.43 10.04,31.24 12.99,50.53 2.87,19.21 4.31,38.49 4.31,57.7 5.73,24.07 8.6,45.75 8.6,65.03 0,19.21 0,36.03 0,50.45 0,24.07 -1.43,49.33 -4.3,75.79 -2.87,26.46 -7.17,49.34 -12.99,68.62 0,4.79 -1.44,10.84 -4.3,18.01 -2.87,7.26 -4.31,13.23 -4.31,18.1 -11.55,14.42 -37.62,27.65 -78.02,39.69 -40.49,12.03 -86.71,20.4 -138.67,25.26 -5.82,0 -10.13,0 -13,0 -2.86,0 -7.25,0 -12.99,0 -11.63,0 -21.67,0 -30.36,0 -8.69,0 -18.73,0 -30.37,0 -57.78,-9.64 -112.61,-26.46 -164.65,-50.53 -51.96,-24.07 -78.02,-57.78 -78.02,-101.05 0,-110.7 -11.56,-202.12 -34.67,-274.32 -23.11,-72.13 -57.78,-108.23 -104.01,-108.23 -5.73,0 -12.99,1.19 -21.59,3.59 -8.69,2.39 -18.81,6.05 -30.37,10.83 -63.52,38.5 -109.74,92.61 -138.67,162.43 -28.85,69.73 -46.23,143.13 -52.04,220.12 -5.74,19.21 -10.05,39.69 -12.91,61.37 -2.95,21.6 -4.39,42.08 -4.39,61.36 0,4.79 0,10.76 0,18.02 0,7.25 0,15.62 0,25.26 -5.74,4.78 -8.6,10.84 -8.6,18.01 0,7.25 0,15.7 0,25.27 0,14.42 -2.87,36.1 -8.77,64.95 -5.74,28.93 -8.61,60.17 -8.61,93.88 -5.82,9.56 -8.69,19.21 -8.69,28.85 0,9.65 0,19.21 0,28.85 -5.73,33.71 -10.12,67.35 -12.99,101.06 -2.87,33.71 -4.3,62.56 -4.3,86.63 0,4.78 0,8.45 0,10.84 0,2.39 2.87,5.97 8.61,10.84 0,4.78 0,8.36 0,10.76 0,2.47 0,3.66 0,3.66 0,28.85 7.25,49.33 21.67,61.37 14.51,11.95 36.11,18.01 65.04,18.01l60.65 0c0,0 18.73,0 56.34,0 37.54,0 79.46,2.39 125.69,7.17 40.48,0 77.94,1.28 112.61,3.67 34.67,2.39 57.78,5.98 69.41,10.84 98.19,19.2 183.47,58.89 255.59,119.06 72.29,60.18 128.63,131.11 169.04,212.96 11.56,23.98 21.68,48.05 30.28,72.12 8.77,24.07 13.07,45.75 13.07,64.95 0,24.07 -14.5,44.55 -43.35,61.37 -28.85,16.82 -80.89,25.26 -156.05,25.26 -51.96,0 -104,0 -155.96,0 -51.97,0 -104.01,2.4 -155.97,7.26 -51.96,4.78 -105.44,8.37 -160.43,10.76 -54.83,2.47 -108.31,8.44 -160.27,18.09l-8.69 0c-5.74,0 -17.37,1.19 -34.67,3.58 -17.29,2.39 -34.67,6.06 -51.96,10.84 -23.19,4.78 -44.79,15.62 -64.95,32.52 -20.33,16.82 -30.37,39.69 -30.37,68.54 0,24.07 -1.43,48.14 -4.38,72.2 -2.87,23.99 -7.17,48.06 -12.91,72.13 -11.64,105.84 -21.76,222.59 -30.37,350.11 -8.68,127.43 -12.99,261.01 -12.99,400.56 0,24.07 0,49.33 0,75.79 0,26.46 2.87,51.72 8.61,75.79 0,14.43 0,28.85 0,43.28 0,14.42 0,28.85 0,43.27 0,9.64 0,21.68 0,36.1 0,14.43 0,28.93 0,43.36 5.82,110.62 12.99,209.28 21.68,295.91 8.6,86.64 15.94,166.01 21.67,238.14 5.74,53 11.56,103.45 17.3,151.58 5.82,48.14 11.56,93.89 17.29,137.16 0,38.5 3.03,76.99 8.77,115.48 5.74,38.5 8.61,76.99 8.61,115.48 0,9.65 0,19.21 0,28.85 0,9.65 -2.87,19.29 -8.61,28.85 0,19.29 -4.3,36.11 -13.07,50.53 -8.69,14.51 -21.6,26.54 -38.89,36.11 -5.9,4.86 -16.02,8.44 -30.37,10.83 -14.42,2.4 -33.31,3.59 -56.34,3.59 -11.64,0 -24.63,0 -39.05,0 -14.43,0 -27.42,-2.39 -38.98,-7.17 -28.93,0 -54.91,-2.39 -78.02,-7.25 -23.11,-4.79 -40.41,-12.04 -52.04,-21.6 -57.7,-14.51 -116.92,-39.77 -177.57,-75.79 -60.73,-36.11 -119.94,-73.41 -177.72,-111.9 -17.38,-14.42 -36.1,-28.85 -56.27,-43.27 -20.32,-14.51 -39.05,-28.93 -56.42,-43.36 -34.59,-24.07 -62.09,-55.31 -82.25,-93.8 -20.32,-38.5 -36.18,-79.38 -47.74,-122.74 -17.37,-48.13 -27.41,-93.8 -30.36,-137.16 -2.87,-43.27 -4.31,-74.51 -4.31,-93.8 0,-4.78 0,-8.37 0,-10.84 0,-2.39 2.87,-3.58 8.69,-3.58 0,-4.79 0,-7.26 0,-7.26 0,0 0,0 0,0 0,-33.63 -1.43,-69.73 -4.38,-108.23 -2.87,-38.49 -4.31,-79.37 -4.31,-122.73 0,-28.85 -1.43,-58.89 -4.3,-90.22 -2.87,-31.24 -4.3,-63.75 -4.3,-97.39 0,-9.64 0,-20.48 0,-32.51 0,-12.04 0,-25.27 0,-39.69 0,-24.07 0,-50.53 0,-79.38 0,-28.85 2.86,-57.78 8.6,-86.63 0,-24.07 1.44,-50.53 4.31,-79.38 2.95,-28.85 7.25,-55.31 12.99,-79.38 5.81,-33.71 10.2,-68.62 13.07,-104.64 2.87,-36.1 4.3,-73.4 4.3,-111.89 5.82,-4.86 8.69,-12.04 8.69,-21.68 0,-9.64 0,-16.82 0,-21.68 5.74,-72.12 11.55,-140.74 17.29,-205.7 5.74,-64.95 8.69,-119.06 8.69,-162.34l0 -43.35c0,-9.57 0,-21.6 0,-36.11 0,-14.42 0,-31.24 0,-50.45 -5.82,-24.06 -10.12,-46.94 -12.99,-68.61 -2.87,-21.68 -7.25,-32.44 -12.99,-32.44 -17.3,-19.29 -39.05,-38.5 -64.96,-57.78 -26.06,-19.21 -56.42,-40.89 -91.01,-64.96 -5.9,0 -11.63,-2.39 -17.37,-7.25 -5.82,-4.78 -8.69,-7.17 -8.69,-7.17 -40.41,-24.07 -76.59,-48.14 -108.31,-72.21 -31.8,-24.06 -56.42,-45.66 -73.72,-64.95 -17.29,-24.07 -30.36,-45.67 -38.97,-64.95 -8.69,-19.21 -12.99,-36.1 -12.99,-50.53 0,-38.49 20.16,-72.13 60.65,-101.06 40.48,-28.85 109.82,-52.91 208.01,-72.12 75.07,-19.29 138.67,-51.73 190.71,-97.47 51.97,-45.75 77.95,-97.47 77.95,-155.17 0,-48.14 7.17,-111.9 21.67,-191.27 14.43,-79.38 30.29,-160.04 47.66,-241.81 5.82,-28.85 11.56,-56.5 17.38,-82.96 5.74,-26.46 11.47,-51.72 17.37,-75.79 17.3,-52.92 31.72,-102.25 43.2,-148 11.63,-45.67 23.19,-85.43 34.74,-119.07zm3683.36 3962.46c-23.03,-67.34 -46.22,-115.48 -69.25,-144.33 -23.19,-28.85 -46.23,-43.28 -69.42,-43.28 -17.29,0 -36.02,7.18 -56.34,21.6 -20.17,14.51 -44.79,33.71 -73.57,57.78 -75.15,67.35 -157.56,120.27 -247.06,158.76 -89.58,38.49 -180.59,62.56 -272.96,72.21 -17.37,0 -33.23,0 -47.66,0 -14.5,0 -30.36,0 -47.66,0 -17.45,0 -36.18,0 -56.42,0 -20.16,0 -41.92,0 -64.95,0 -202.28,-24.07 -394.35,-103.45 -576.37,-238.22 -182.03,-134.69 -319.27,-312.73 -411.72,-534.05 -51.96,-125.12 -95.32,-252.64 -129.98,-382.55 -34.59,-129.9 -51.97,-262.28 -51.97,-396.97 0,-48.13 1.44,-95.08 4.31,-140.74 2.87,-45.75 10.04,-90.22 21.67,-133.57 40.49,-216.54 140.11,-429.41 299.03,-638.78 158.83,-209.28 394.26,-405.33 706.35,-588.24 17.3,-14.42 36.11,-26.46 56.27,-36.02 20.32,-9.65 41.92,-21.68 65.11,-36.11 51.96,-24.06 102.49,-44.55 151.58,-61.36 49.18,-16.82 93.97,-25.27 134.37,-25.27 5.82,0 12.99,0 21.68,0 8.61,0 18.73,2.39 30.37,7.26 5.73,0 12.91,1.19 21.59,3.58 8.61,2.39 15.86,3.59 21.68,3.59 104.01,62.56 186.25,110.7 246.98,144.33 60.65,33.71 105.44,50.53 134.37,50.53 28.85,0 52.04,-14.43 69.34,-43.28 17.37,-28.85 28.93,-67.34 34.67,-115.48 0,-4.78 0,-8.45 0,-10.84 0,-2.39 0,-5.97 0,-10.84 0,0 0,-1.19 0,-3.58 0,-2.39 0,-3.59 0,-3.59 -5.74,-4.86 -8.69,-9.64 -8.69,-14.42 0,-4.87 0,-7.26 0,-7.26 0,-52.92 15.86,-90.21 47.66,-111.89 31.8,-21.6 70.77,-32.44 116.99,-32.44 28.93,0 60.65,3.59 95.32,10.84 34.75,7.17 69.42,18.01 104.01,32.44 28.93,14.42 59.29,28.85 91.01,43.35 31.8,14.43 59.3,28.85 82.33,43.28 69.41,33.71 127.19,64.95 173.42,93.8 46.22,28.85 83.76,55.39 112.61,79.38 23.11,24.07 40.49,48.14 51.96,72.21 11.56,24.06 17.38,50.52 17.38,79.37 0,19.29 -2.95,43.36 -8.69,72.21 -5.74,28.85 -11.56,60.17 -17.29,93.8 -5.82,9.65 -10.13,20.49 -13,32.52 -2.86,12.03 -4.3,25.26 -4.3,39.69 -34.75,101.05 -63.68,223.71 -86.71,368.12 -23.19,144.33 -34.67,293.52 -34.67,447.5 0,67.34 1.44,135.88 4.31,205.7 2.87,69.73 7.17,140.74 13.07,212.87 23.03,197.33 57.78,393.38 104,588.24 46.23,194.94 101.06,366.93 164.58,516.12 5.81,4.78 10.12,12.03 12.99,21.6 2.87,9.64 4.3,16.89 4.3,21.68 5.9,14.42 11.64,27.65 17.45,39.68 5.74,12.04 11.48,22.88 17.3,32.52 11.47,38.49 21.68,74.52 30.36,108.23 8.61,33.71 12.99,62.56 12.99,86.63 0,33.71 -11.55,61.37 -34.74,82.96 -23.04,21.68 -57.71,32.52 -103.93,32.52 -11.56,0 -59.21,-1.19 -143.06,-3.59 -83.76,-2.47 -171.82,-13.23 -264.27,-32.51 -86.71,-14.43 -169.04,-36.1 -247.06,-64.95 -77.95,-28.86 -128.47,-69.74 -151.67,-122.74zm-277.34 -2172.46l0 -28.93c0,-9.56 -1.44,-20.4 -4.31,-32.44 -2.86,-12.03 -7.25,-25.26 -12.99,-39.69 -17.29,-24.07 -40.48,-48.13 -69.41,-72.2 -28.77,-24.07 -63.52,-36.1 -103.93,-36.1 -17.37,0 -36.18,2.39 -56.34,7.25 -20.17,4.78 -44.79,14.42 -73.72,28.85 -161.71,91.41 -287.47,205.7 -376.89,342.85 -89.58,137.16 -154.61,277.91 -195.1,422.24 -11.55,62.56 -21.6,126.32 -30.28,191.27 -8.69,64.96 -13.07,126.32 -13.07,184.02 0,91.42 10.2,180.44 30.36,267.07 20.16,86.63 41.92,156.36 64.95,209.28 17.38,48.14 40.49,83.05 69.42,104.72 28.93,21.6 60.65,32.44 95.32,32.44 28.93,0 56.34,-4.78 82.32,-14.42 25.99,-9.65 53.48,-19.21 82.41,-28.85 28.85,-9.65 57.78,-21.68 86.55,-36.11 28.93,-14.42 57.86,-31.24 86.71,-50.53 69.42,-43.27 132.94,-94.99 190.64,-155.17 57.78,-60.17 98.26,-131.1 121.38,-212.95 0,-43.27 -1.44,-86.63 -4.31,-129.9 -2.87,-43.28 -4.3,-86.63 -4.3,-129.91 -5.9,-43.27 -10.2,-87.82 -13.07,-133.49 -2.87,-45.75 -4.3,-92.69 -4.3,-140.75 0,-67.42 2.86,-138.35 8.6,-212.95 5.9,-74.59 14.51,-147.99 26.06,-220.12 5.74,-19.29 10.13,-38.49 12.99,-57.78 2.87,-19.21 4.31,-38.49 4.31,-57.7zm2782.06 1436.3c28.93,48.14 60.73,85.44 95.32,111.89 34.67,26.46 72.29,39.69 112.69,39.69 23.11,0 49.18,-4.86 77.95,-14.42 28.93,-9.64 54.91,-21.68 78.1,-36.1 98.19,-62.57 190.63,-163.62 277.35,-303.17 86.63,-139.55 144.41,-286.27 173.26,-440.25 17.37,-96.27 51.96,-167.2 104.08,-212.95 51.96,-45.75 109.74,-73.4 173.26,-82.96 0,0 2.87,0 8.77,0 5.74,0 11.48,0 17.29,0 23.04,0 46.23,2.39 69.26,7.17 23.19,4.86 46.22,9.64 69.42,14.42 46.22,19.29 93.88,44.55 142.97,75.8 49.1,31.32 91.02,68.62 125.61,111.89 63.59,76.99 111.25,152.78 142.97,227.38 31.88,74.59 47.82,150.31 47.82,227.29 0,81.85 -18.89,169.68 -56.43,263.48 -37.61,93.8 -91.01,196.06 -160.35,306.75 -63.51,101.06 -141.54,193.67 -233.99,277.91 -92.44,84.16 -187.76,150.31 -285.95,198.44 -52.04,24.07 -101.14,43.36 -147.36,57.78 -46.22,14.43 -92.45,24.07 -138.67,28.86l-86.71 0c-623.95,0 -1109.31,-210.48 -1455.99,-631.52 -346.68,-421.04 -520.02,-966.01 -520.02,-1634.83 0,-48.14 1.43,-97.47 4.3,-148 2.87,-50.53 7.33,-102.25 13.07,-155.17 0,-33.63 1.44,-67.34 4.31,-101.05 2.87,-33.64 7.25,-67.35 12.99,-101.06 104,-524.49 310.5,-950.31 619.64,-1277.46 309.07,-327.24 639.97,-531.74 992.39,-613.51 51.96,-9.65 106.87,-18.09 164.73,-25.27 57.7,-7.25 112.61,-10.83 164.58,-10.83 34.75,0 69.41,1.19 104,3.58 34.67,2.39 69.42,6.06 104.01,10.84 34.66,4.78 67.9,10.84 99.62,18.01 31.8,7.25 65.11,15.7 99.78,25.27 150.23,48.13 290.34,139.55 420.32,274.31 129.99,134.69 229.61,279.1 299.02,433.08 34.67,67.34 60.65,134.69 78.03,202.03 17.29,67.42 25.9,129.99 25.9,187.69 0,105.83 -34.67,196.05 -103.93,270.65 -69.41,74.59 -179.15,111.89 -329.38,111.89 -23.12,0 -51.97,-2.39 -86.63,-7.25 -34.75,-4.78 -66.47,-9.56 -95.4,-14.43 -11.48,0 -23.03,-1.19 -34.67,-3.58 -11.56,-2.39 -23.03,-5.98 -34.59,-10.84 -69.41,-9.64 -124.25,-27.66 -164.73,-54.12 -40.41,-26.45 -60.65,-58.97 -60.65,-97.46l8.69 -14.43c0,-33.63 -1.44,-68.54 -4.31,-104.64 -2.95,-36.11 -4.38,-73.4 -4.38,-111.9 -11.64,-96.19 -34.67,-185.21 -69.34,-267.06 -34.67,-81.77 -89.58,-122.66 -164.65,-122.66 -5.74,0 -14.43,1.2 -26.06,3.59 -11.48,2.39 -23.04,6.06 -34.59,10.84 -5.74,0 -11.64,1.2 -17.38,3.59 -5.73,2.39 -11.55,3.58 -17.29,3.58 -242.68,149.2 -437.7,380.16 -584.98,692.97 -147.44,312.73 -235.58,642.36 -264.35,988.8 -5.82,48.14 -10.12,97.47 -12.99,147.92 -3.03,50.53 -4.47,99.86 -4.47,147.99 0,206.9 23.2,405.42 69.42,595.5 46.23,190 112.61,362.07 199.32,516.04zm4940.11 -1234.27c28.85,67.43 50.6,143.22 64.95,227.38 14.42,84.24 21.76,172.06 21.76,263.48 0,62.56 -2.87,125.12 -8.77,187.6 -5.74,62.56 -17.3,127.52 -34.59,194.94 -63.6,312.73 -206.57,597.81 -429.01,855.31 -222.43,257.42 -512.77,386.13 -871.09,386.13 -69.25,0 -148.71,-13.23 -238.29,-39.69 -89.58,-26.46 -180.6,-66.22 -273.04,-119.14 -51.97,-28.85 -104.01,-61.37 -155.97,-97.39 -51.96,-36.11 -104.01,-75.8 -155.97,-119.15 -28.93,-24.07 -59.29,-51.72 -91.01,-82.97 -31.8,-31.32 -65.04,-66.14 -99.7,-104.64 -46.23,-52.92 -92.45,-109.5 -138.68,-169.67 -46.22,-60.09 -86.63,-121.46 -121.3,-184.02 -23.11,-38.5 -43.35,-76.99 -60.64,-115.48 -17.46,-38.5 -31.8,-74.6 -43.36,-108.23 -34.67,-81.85 -62.08,-172.07 -82.41,-270.73 -20.16,-98.59 -30.36,-200.84 -30.36,-306.76 0,-72.12 4.46,-144.33 13.07,-216.45 8.69,-72.21 21.68,-144.42 39.05,-216.54 51.96,-192.47 138.67,-381.35 259.97,-566.65 121.38,-185.21 283.09,-347.64 485.28,-487.19 75.15,-48.05 141.7,-85.35 199.4,-111.81 57.78,-26.54 112.69,-39.77 164.65,-39.77 75.16,0 151.67,27.73 229.69,83.04 78.02,55.31 166.17,147.92 264.36,277.91 57.78,62.56 102.57,111.81 134.29,147.92 31.79,36.1 62.16,61.36 91.01,75.79 23.11,9.64 47.66,16.81 73.72,21.68 25.9,4.78 59.13,7.17 99.62,7.17 155.97,0 286.03,54.19 390.04,162.42 103.92,108.31 187.76,224.99 251.36,350.03 11.56,19.29 21.6,38.49 30.29,57.78 8.61,19.21 15.94,38.49 21.68,57.7zm-1586.06 -158.76c-34.66,86.64 -69.25,181.63 -104,285.08 -34.67,103.45 -60.65,208.17 -78.02,314.01 -11.56,57.7 -20.17,115.48 -25.99,173.18 -5.73,57.78 -8.6,113.09 -8.6,166.01 0,86.63 8.6,170.87 25.98,252.64 17.37,81.77 46.22,156.36 86.63,223.79 34.75,76.98 76.59,135.88 125.68,176.77 49.17,40.96 102.57,61.36 160.35,61.36 28.93,0 57.78,-3.58 86.71,-10.84 28.77,-7.17 57.7,-18.01 86.63,-32.43 17.3,-9.65 37.62,-22.88 60.65,-39.69 23.19,-16.9 46.23,-39.69 69.42,-68.62 69.26,-81.77 132.77,-202.03 190.55,-360.87 57.86,-158.76 86.72,-339.19 86.72,-541.3 0,-105.84 -8.69,-215.34 -25.99,-328.43 -17.37,-113.09 -51.96,-229.77 -104,-350.03 -5.82,-14.43 -13.07,-30.13 -21.68,-46.94 -8.69,-16.82 -18.73,-34.91 -30.28,-54.12 -28.93,-38.49 -62.17,-73.4 -99.78,-104.64 -37.46,-31.32 -79.38,-46.94 -125.61,-46.94 -40.4,0 -92.45,24.07 -156.04,72.2 -63.52,48.06 -129.91,134.69 -199.33,259.81z"/>
  <path class="fil1" d="M19287.87 21407.44c109.82,52.92 199.4,96.2 268.74,129.91 69.26,33.71 121.22,64.95 155.97,93.8 28.93,24.07 49.09,48.14 60.73,72.21 11.47,24.07 17.29,52.92 17.29,86.63 0,4.78 0,8.37 0,10.84 0,2.39 0,3.59 0,3.59 5.74,24.06 15.86,45.66 30.36,64.95 14.43,19.21 30.29,28.85 47.66,28.85 5.74,0 12.99,-1.2 21.6,-3.59 8.69,-2.39 18.89,-6.05 30.37,-10.84 5.81,-4.78 12.99,-10.84 21.67,-18.01 8.61,-7.25 15.94,-15.7 21.68,-25.26 63.52,-57.78 141.54,-110.7 233.99,-158.84 92.37,-48.14 193.59,-72.12 303.33,-72.12 75.15,0 155.97,15.62 242.68,46.86 86.63,31.32 176.21,83.04 268.65,155.17 34.75,28.93 69.34,60.17 104.01,93.88 34.67,33.63 69.42,72.13 104,115.48 17.38,19.21 34.67,36.11 51.97,50.53 17.37,14.43 34.74,21.6 52.04,21.6 11.55,0 23.11,-2.39 34.67,-7.17 11.55,-4.87 23.11,-9.65 34.67,-14.43 5.81,-4.86 11.55,-8.45 17.29,-10.84 5.82,-2.39 11.56,-6.06 17.37,-10.84 52.05,-48.13 105.44,-90.21 160.35,-126.32 54.84,-36.1 111.18,-66.15 169.04,-90.21 51.96,-19.21 105.44,-34.91 160.27,-46.95 54.91,-12.03 108.31,-18.01 160.35,-18.01 202.27,0 387.17,63.76 554.69,191.28 167.61,127.51 288.91,275.43 363.98,443.91 69.34,158.75 121.3,339.19 156.05,541.3 34.67,202.11 54.83,406.62 60.73,613.51 5.73,43.27 8.6,85.43 8.6,126.32 0,40.88 0,82.96 0,126.32 0,153.97 -5.73,304.28 -17.37,451.08 -11.56,146.73 -25.98,282.69 -43.36,407.81 -17.29,91.42 -38.89,156.37 -64.95,194.86 -26.06,38.5 -62.08,57.7 -108.31,57.7 -28.93,0 -69.41,-10.76 -121.38,-32.43 -51.96,-21.68 -118.43,-46.94 -199.32,-75.79 -40.48,-14.43 -78.02,-26.46 -112.61,-36.11 -34.75,-9.64 -66.55,-21.68 -95.32,-36.1 -86.71,-33.63 -147.44,-69.74 -182.03,-108.23 -34.74,-38.49 -52.12,-96.27 -52.12,-173.26 0,-38.49 5.9,-87.75 17.38,-147.92 11.55,-60.17 23.11,-128.71 34.74,-205.7 17.3,-67.42 31.72,-174.45 43.2,-321.18 11.64,-146.8 17.45,-299.58 17.45,-458.33 0,-4.86 0,-10.84 0,-18.09 0,-7.18 0,-13.23 0,-18.02 0,-24.06 0,-49.33 0,-75.79 0,-26.46 0,-51.72 0,-75.79 0,-14.43 0,-28.85 0,-43.28 0,-14.42 0,-26.45 0,-36.1 -5.81,-38.49 -8.68,-76.99 -8.68,-115.48 0,-38.49 0,-74.6 0,-108.31 0,-91.41 -34.67,-163.54 -104.09,-216.45 -69.25,-53 -147.28,-79.46 -233.91,-79.46 -17.37,0 -33.23,1.19 -47.66,3.66 -14.5,2.39 -30.36,5.98 -47.66,10.76 -63.59,14.51 -125.68,48.14 -186.33,101.06 -60.73,53 -105.52,127.51 -134.37,223.79l0 418.65c0,226.1 -4.3,445.02 -13.07,656.78 -8.6,211.68 -24.46,421.04 -47.66,627.93 -5.73,105.84 -23.03,182.83 -51.96,230.97 -28.85,48.13 -75.07,72.2 -138.67,72.2 -40.41,0 -88.07,-9.64 -143.06,-28.93 -54.83,-19.21 -122.73,-45.67 -203.62,-79.38 -104.01,-33.63 -192.07,-76.99 -264.28,-129.9 -72.28,-52.92 -108.39,-134.69 -108.39,-245.39 0,-9.64 1.44,-20.48 4.31,-32.52 2.87,-12.03 4.3,-22.79 4.3,-32.43 0,-9.65 1.43,-16.9 4.46,-21.68 2.87,-4.78 4.31,-12.04 4.31,-21.68 0,-4.78 0,-10.76 0,-18.01 0,-7.25 0,-13.23 0,-18.01 17.29,-81.85 33.15,-188.88 47.66,-321.26 14.42,-132.3 27.41,-268.18 38.97,-407.73 0,-57.78 1.43,-115.48 4.38,-173.26 2.87,-57.7 4.3,-113.09 4.3,-166.01 0,-105.84 -4.3,-200.92 -13.07,-285.08 -8.6,-84.24 -21.59,-150.39 -38.89,-198.52 -28.93,-67.35 -69.41,-127.52 -121.38,-180.44 -52.04,-52.92 -112.61,-79.38 -182.02,-79.38 -57.78,0 -124.25,25.27 -199.33,75.8 -75.15,50.52 -155.96,131.1 -242.67,241.8 -23.12,110.62 -40.41,227.37 -51.97,350.03 -11.63,122.73 -17.37,263.47 -17.37,422.23 0,134.77 4.3,289.94 13.07,465.59 8.61,175.57 15.86,381.27 21.6,617.1 -11.56,67.34 -26.06,116.67 -43.36,147.91 -17.29,31.32 -46.22,46.95 -86.63,46.95 -23.11,0 -53.48,-7.26 -91.01,-21.68 -37.62,-14.43 -85.28,-31.24 -143.06,-50.53 -132.77,-72.13 -236.86,-131.1 -311.93,-176.77 -75.16,-45.74 -129.99,-87.82 -164.74,-126.32 -28.93,-33.71 -47.66,-68.62 -56.26,-104.72 -8.69,-36.02 -12.99,-80.57 -12.99,-133.49 0,-14.43 0,-28.85 0,-43.28 0,-14.42 2.87,-31.32 8.6,-50.53 0,-14.42 0,-31.32 0,-50.52 0,-19.29 0,-38.5 0,-57.78 23.12,-158.76 39.06,-313.93 47.66,-465.52 8.69,-151.58 12.99,-301.97 12.99,-451.08 0,-57.78 0,-116.68 0,-176.85 0,-60.17 -2.87,-119.07 -8.6,-176.85 -5.82,-139.55 -12.99,-279.1 -21.76,-418.64 -8.61,-139.55 -18.73,-279.1 -30.29,-418.57 0,-43.36 -1.43,-85.44 -4.3,-126.32 -2.87,-40.89 -7.17,-80.66 -13.07,-119.15 0,-9.56 0,-16.82 0,-21.6 0,-4.86 0,-12.03 0,-21.68 -5.74,-4.78 -8.61,-10.84 -8.61,-18.01 0,-7.25 0,-13.23 0,-18.09 0,-72.12 10.04,-125.12 30.37,-158.76 20.16,-33.71 50.52,-50.52 91.01,-50.52 23.03,0 53.4,4.78 90.94,14.42 37.61,9.65 76.5,21.68 116.99,36.1z"/>
  <path class="fil2" d="M6679.81 4576.57c1600.8,-1020.65 5640.24,-2661.95 8294.48,-2661.95l1569.22 0c481.07,0 1615.5,204.26 2000.72,335.4 349.77,119.08 548.89,127.68 876.41,285.49 160.14,77.14 688.79,371.23 768.58,391.16l365.61 -2285.17c-1412.45,-310.16 -2305.42,-537.08 -4067.41,-537.08l-784.57 0c-3526.95,0 -7219.67,1575.01 -9280.73,3002.72 -1262.44,874.57 -2291.92,1663.48 -3226.51,2844.68 -673.85,851.58 -1671.6,2867.73 -1671.6,4321.72l0 1118.12c0,2441.78 1571.48,4784.32 3048.69,5835.34 1785.37,1270.23 3835.91,2097.71 6926.94,2097.71l616.48 0c2677.45,0 6382.87,-1423.79 7803.59,-2595.82 1774.69,-1464.04 3629.08,-3448.12 3629.08,-6561.82 0,-2318.75 -800.64,-3931.69 -2031.41,-5097.94 -1027.72,-973.88 -3041.7,-2249.41 -5029.96,-2249.41l0 1863.48c1551.62,0 3485.33,884.69 4273.19,1637.28 885.5,845.72 1891.52,2195.65 1891.52,3846.59 0,2638.97 -1966.33,4662.35 -3577.01,5812.6 -1722.46,1229.97 -4451.42,2120.45 -7463.38,2120.45 -2670.87,0 -4875.68,-741.1 -6404.33,-1848.85 -1327.27,-961.75 -2954.83,-2941.01 -2954.83,-5125.82l0 -159.75c0,-2627.23 2707.51,-5292.63 4427.23,-6389.13z"/>
 </g>
</svg>
